<svg id="Layer_1" data-name="Layer 1" xmlns="http://www.w3.org/2000/svg" viewBox="0 0 88 66"><defs><style>.cls-1,.cls-6{fill:#00ffb3;}.cls-2{fill:#fff;}.cls-2,.cls-6{fill-rule:evenodd;}.cls-3{fill:#06083f;}.cls-4{fill:#6439ff;}.cls-5{fill:#9696ff;}</style></defs><rect class="cls-1" x="15.58" y="16.94" width="72.31" height="31.66" rx="2.64" transform="translate(0.04 -0.07) rotate(0.08)"/><path class="cls-2" d="M86.82,29.12c-.3,1.31.94.07,0,0Z"/><path class="cls-2" d="M86.82,33.22c-.31,1.31.94.07,0,0Z"/><path class="cls-2" d="M86.49,43.94h.63v-.63h-.63Z"/><path class="cls-2" d="M86.5,34.8Z"/><path class="cls-2" d="M86.5,36.37Z"/><path class="cls-2" d="M86.69,39.56h0Z"/><path class="cls-2" d="M86.36,39.51l-.24,0Z"/><path class="cls-2" d="M85.94,39.45Z"/><path class="cls-2" d="M86.69,39.56l-.14,0Z"/><path class="cls-2" d="M86.73,46.87a1.19,1.19,0,0,0-1.27,1.26A1.19,1.19,0,0,0,86.73,46.87Z"/><path class="cls-2" d="M86.19,27.55c1.11-1.28-1-.75,0,0Z"/><path class="cls-2" d="M85.54,42.05c.32-.5.3-1.27.95-.63a1.81,1.81,0,0,0-.31-1.26C85.3,39.94,84.84,41.73,85.54,42.05Z"/><path class="cls-2" d="M85.86,43.94c-.77.37.34,1.49.63.63C86.07,44.57,86.2,44,85.86,43.94Z"/><path class="cls-2" d="M85.24,32.27c.45.08.53.52,1,.64V32C85.81,32,85.29,31.9,85.24,32.27Z"/><path class="cls-2" d="M85.88,25.65c-1.83-.33-.14,1.37,0,0Z"/><path class="cls-2" d="M85.55,35.43c-.3,1.31.94.06,0,0Z"/><path class="cls-2" d="M85.23,37.63h.63V37h-.63Z"/><path class="cls-2" d="M85.42,20.93c.52,0,.17.87.63.95.12-.58.5-1.07,0-1.58C86,20.72,85.49,20.59,85.42,20.93Z"/><path class="cls-2" d="M85.24,33.22c-.3,1.31.94.07,0,0Z"/><path class="cls-2" d="M85.23,38.58Z"/><path class="cls-2" d="M84.59,46.78a.87.87,0,0,0,1-.63C85.08,45.7,84.54,45.91,84.59,46.78Z"/><path class="cls-2" d="M85.41,19.2c-1.06-.77.76,1.06,0,0Z"/><path class="cls-2" d="M84.94,21.87c-1.23.78,1,.46,0,0Z"/><path class="cls-2" d="M85.11,47.75l-.15,0Z"/><path class="cls-2" d="M84.77,47.71l.19,0h-.19Z"/><path class="cls-2" d="M85.2,47.77l-.09,0Z"/><path class="cls-2" d="M84.35,47.65Z"/><path class="cls-2" d="M83.66,30.7c1,.06.77-1.13,1.27-1.58C83.92,29.05,84.16,30.24,83.66,30.7Z"/><path class="cls-2" d="M84.59,43c-1.23.79,1,.47,0,0Z"/><path class="cls-2" d="M84,41.42v.63c.31,0,.37.25.63.31C84.57,41.87,84.64,41.27,84,41.42Z"/><path class="cls-2" d="M84.3,26.28V25h-.63C83.74,25.58,83.35,26.6,84.3,26.28Z"/><path class="cls-2" d="M83.67,28.8h.63v-.63h-.63Z"/><path class="cls-2" d="M84,44.57Z"/><path class="cls-2" d="M83.33,45.83a1.52,1.52,0,0,1,1,.32V45.2A.87.87,0,0,0,83.33,45.83Z"/><path class="cls-2" d="M83.68,20.92c-1.23.78,1,.46,0,0Z"/><path class="cls-2" d="M83.66,33.85c-1,.46,1.23.78,0,0Z"/><path class="cls-2" d="M83.65,39.21A2.65,2.65,0,0,0,84,37.32C83,36.87,83.17,39.2,83.65,39.21Z"/><path class="cls-2" d="M83.65,40.47c-1.23.78,1,.46,0,0Z"/><path class="cls-2" d="M83.33,42.68H84v-.63h-.63Z"/><path class="cls-2" d="M83.35,32.27c-.35,1.67,1,.38,0,0Z"/><path class="cls-2" d="M83,29.12c-.31,1.31.94.06,0,0Z"/><path class="cls-2" d="M83,31c-.3,1.31,1,.06,0,0Z"/><path class="cls-2" d="M83,43.62Z"/><path class="cls-2" d="M82.74,17.45a19.66,19.66,0,0,1-2.53,2.2A1.79,1.79,0,0,0,82.74,17.45Z"/><path class="cls-2" d="M82.7,41.73c-1-.76.77,1.06,0,0Z"/><path class="cls-2" d="M82.38,44.88H83v-.63h-.63Z"/><path class="cls-2" d="M81.15,22.81c-.33.33-.65,2.25,0,2.52,1.37-.8.36-.07,0-1.26,1-.36.83.09,1.58-.31-.16-.79,0-1.91-1-1.9C82.34,22.88,81.92,24.07,81.15,22.81Z"/><path class="cls-2" d="M81.77,31.64c0,.78-.06,1.53.63,1.58C82.45,32.43,82.46,31.69,81.77,31.64Z"/><path class="cls-2" d="M82.07,45.83Z"/><path class="cls-2" d="M81.79,20.29c-.31,1.31.94.06,0,0Z"/><path class="cls-2" d="M80,17.87c-1,1.06,1.16.95,0,0Z"/><path class="cls-2" d="M80.83,29.43c-.54-1.07-.09-1.37.63-1.89a2,2,0,0,0-1.57-.32C80.16,28,79.8,29.4,80.83,29.43Z"/><path class="cls-2" d="M81.12,46.46Z"/><path class="cls-2" d="M81.12,47.72Z"/><path class="cls-2" d="M80.83,30.69a2,2,0,0,0-.32,1.58C81.46,32.76,81.34,30.64,80.83,30.69Z"/><path class="cls-2" d="M81.13,36.68v-.94c-.69-.06-1,.25-1,.94Z"/><path class="cls-2" d="M81.13,40.47c.43-.9-.56-1.9-.95-.95C80.78,39.56,80.4,40.56,81.13,40.47Z"/><path class="cls-2" d="M78.3,17.82c-.31,1.31.94.06,0,0Z"/><path class="cls-2" d="M77.57,21.08c-.3,1.31.94.07,0,0Z"/><path class="cls-2" d="M80.21,23.44c0-.78.06-1.53-.63-1.58C79.53,22.64,79.52,23.39,80.21,23.44Z"/><path class="cls-2" d="M79.86,47.4c-1,1,1.11.53,0,0Z"/><path class="cls-2" d="M79.26,26.59Z"/><path class="cls-2" d="M79,19.65c-.3,1.31.94.07,0,0Z"/><path class="cls-2" d="M78.92,43.62Z"/><path class="cls-2" d="M78.91,46.77c.14-.13-.2.21,0,0Z"/><path class="cls-2" d="M78.62,26.91Z"/><path class="cls-2" d="M78.61,39.83Z"/><path class="cls-2" d="M78.31,26c-.3,1.31.94.06,0,0Z"/><path class="cls-2" d="M78,38.57c-.3,1.31.94.07,0,0Z"/><path class="cls-2" d="M77.68,25.64Z"/><path class="cls-2" d="M77,32.58Z"/><path class="cls-2" d="M76.74,19c-.3,1.31,1,.06,0,0Z"/><path class="cls-2" d="M76.42,27.85c-.28-1.12.81-1.63-.32-1.9C76.28,26.51,75.72,27.81,76.42,27.85Z"/><path class="cls-2" d="M74.79,18h-.63v.95C74.73,19,74.9,18.6,74.79,18Z"/><path class="cls-2" d="M75.8,19.33c-.11.53-.43,1.42,0,1.89C76,21,76.5,19.47,75.8,19.33Z"/><path class="cls-2" d="M75.79,24.06c-1,1,1.12.53,0,0Z"/><path class="cls-2" d="M75.77,42.35c-1,1.06,1.16,1,0,0Z"/><path class="cls-2" d="M75.76,45.51c.13-.14-.21.2,0,0Z"/><path class="cls-2" d="M75.46,36.68c.13-.14-.21.2,0,0Z"/><path class="cls-2" d="M75.45,44.87c-.07-.59.35-.69.31-1.26-.8.63-1.44-.33-1.89.32C74.43,44.21,74.79,44.69,75.45,44.87Z"/><path class="cls-2" d="M75.14,36.68c0-.41.41-.44.32-1C74.68,35.24,74.53,36.8,75.14,36.68Z"/><path class="cls-2" d="M75.13,47.71c-.3,1.31.94.07,0,0Z"/><path class="cls-2" d="M72.93,19.1c.08-.72-.08-1.18-.63-1.26C72.37,18.4,72,19.42,72.93,19.1Z"/><path class="cls-2" d="M74.22,20.59c.7.24,1.3-1.16.63-1.26C74.85,20,74,19.73,74.22,20.59Z"/><path class="cls-2" d="M74.84,27.85c-.3,1.3.94.06,0,0Z"/><path class="cls-2" d="M74.83,37.62Z"/><path class="cls-2" d="M74.53,24.06c0-.4.4-.44.32-.94C74.07,22.62,73.92,24.19,74.53,24.06Z"/><path class="cls-2" d="M73.89,31.31Z"/><path class="cls-2" d="M73.88,35.1c-.3,1.31,1,.06,0,0Z"/><path class="cls-2" d="M72,37c-.27,1.84.87,2.28,1.89,2.84C73.6,38.22,73.05,38.19,72,37Z"/><path class="cls-2" d="M72.61,40.77c.14-.13-.2.21,0,0Z"/><path class="cls-2" d="M72.61,46.13Z"/><path class="cls-2" d="M71.67,42.66c.31,0,.37.26.63.32,0-.41.4-.44.31-.95h-.94Z"/><path class="cls-2" d="M72,21.54c-1.05.45,1.23.78,0,0Z"/><path class="cls-2" d="M72,34.78Z"/><path class="cls-2" d="M71.37,27.21c.09-.19.79-1.21,0-1.26C71.67,26.54,70.43,27,71.37,27.21Z"/><path class="cls-2" d="M71,47.08c.13-.14-.21.2,0,0Z"/><path class="cls-2" d="M69.79,28.47c.83.1,1-.44.95-1.26C69.91,27.11,69.93,27.87,69.79,28.47Z"/><path class="cls-2" d="M69.79,29.42c-.34,1.67,1,.37,0,0Z"/><path class="cls-2" d="M70.1,37.93c-.06-.89.27-2.16-.63-2.21C68.7,36.53,69.6,37.45,70.1,37.93Z"/><path class="cls-2" d="M69.77,45.5c-.3,1.31.94.06,0,0Z"/><path class="cls-2" d="M69.64,17.86c-.31,1.31.94.07,0,0Z"/><path class="cls-2" d="M69.16,31.94Z"/><path class="cls-2" d="M68.83,39.19c-.88,1.62,1.5.78,0,0Z"/><path class="cls-2" d="M68.85,23.11c.14-.13-.2.2,0,0Z"/><path class="cls-2" d="M68.83,43.29c-.35,1.67,1,.37,0,0Z"/><path class="cls-2" d="M68.83,44.55c-1,1,1.11.53,0,0Z"/><path class="cls-2" d="M68.34,17.53c-1.23.78,1,.46,0,0Z"/><path class="cls-2" d="M68.54,21.22c0-.41.41-.44.32-.95C68.08,19.78,67.93,21.34,68.54,21.22Z"/><path class="cls-2" d="M68.53,32.57c0-.41.4-.44.31-.95C68.07,31.13,67.91,32.69,68.53,32.57Z"/><path class="cls-2" d="M67.59,23.42c-1,1,1.12.53,0,0Z"/><path class="cls-2" d="M67.58,35.09c-1.06-.76.76,1.06,0,0Z"/><path class="cls-2" d="M67.57,42.66c-1.23.78,1,.46,0,0Z"/><path class="cls-2" d="M67,21.21Z"/><path class="cls-2" d="M66.64,26.89Z"/><path class="cls-2" d="M66.63,34.14c-.3,1.31,1,.07,0,0Z"/><path class="cls-2" d="M66.65,18.06H66v.63h.63Z"/><path class="cls-2" d="M66.33,25.31Z"/><path class="cls-2" d="M66.62,45.49c-.46-.45-1-.24-1,.63A.87.87,0,0,0,66.62,45.49Z"/><path class="cls-2" d="M66.37,48.2c0-.4.4-.43.31-.94C65.91,46.77,65.75,48.33,66.37,48.2Z"/><path class="cls-2" d="M66,22.16Z"/><path class="cls-2" d="M66,30.36c.13-.14-.21.2,0,0Z"/><path class="cls-2" d="M66,41.08Z"/><path class="cls-2" d="M66,43.6Z"/><path class="cls-2" d="M65.69,31c.13-.14-.21.2,0,0Z"/><path class="cls-2" d="M65.68,41.71Z"/><path class="cls-2" d="M64.43,30.35Z"/><path class="cls-2" d="M64.13,20Z"/><path class="cls-2" d="M64.1,44.54Z"/><path class="cls-2" d="M63.78,43.6Z"/><path class="cls-2" d="M62.32,19.09c0-.42,1.29-.95.32-1.26C62.69,18.25,61.35,18.78,62.32,19.09Z"/><path class="cls-2" d="M63.18,24.68c.13-.14-.21.2,0,0Z"/><path class="cls-2" d="M63.16,37.29c-.3,1.31.94.06,0,0Z"/><path class="cls-2" d="M63.16,40.44Z"/><path class="cls-2" d="M62.86,28.46Z"/><path class="cls-2" d="M62.21,43.6c.13-.14-.21.2,0,0Z"/><path class="cls-2" d="M61.58,38.23c-.3,1.31,1,.07,0,0Z"/><path class="cls-2" d="M61,20.89c-.3,1.31,1,.06,0,0Z"/><path class="cls-2" d="M60.32,41.07c-.06.69.25,1,.94,1C61.32,41.33,61,41,60.32,41.07Z"/><path class="cls-2" d="M60.94,45.8c-.3,1.31,1,.07,0,0Z"/><path class="cls-2" d="M60.32,35.08H61v-.63h-.63Z"/><path class="cls-2" d="M60,38.55c-.3,1.31,1,.06,0,0Z"/><path class="cls-2" d="M59.71,26.56Z"/><path class="cls-2" d="M59.7,30.66c1.2-1.54-1.11-1.16,0,0Z"/><path class="cls-2" d="M59.4,18.68c-1.06-.76.76,1.06,0,0Z"/><path class="cls-2" d="M59.38,34.13Z"/><path class="cls-2" d="M59.37,38.86c.14-.13-.2.21,0,0Z"/><path class="cls-2" d="M58.44,28.14c-1,1,1.12.53,0,0Z"/><path class="cls-2" d="M58.13,27.19Z"/><path class="cls-2" d="M58.12,32.87c-.3,1.31,1,.06,0,0Z"/><path class="cls-2" d="M56.86,28.14c-1.59,0-1.17,1,0,1.26Z"/><path class="cls-2" d="M56.54,32.24c-.95,1.06,1.17.95,0,0Z"/><path class="cls-2" d="M56.22,40.12c-.34,1.67,1,.37,0,0Z"/><path class="cls-2" d="M55.59,41.38Z"/><path class="cls-2" d="M55,18.87c.29.19,1.16.73.94-.32C55.57,18.6,55.05,18.5,55,18.87Z"/><path class="cls-2" d="M54.33,39.8c-.31,1.31.94.07,0,0Z"/><path class="cls-2" d="M53.72,25.61c0,.32-.26.37-.32.63.32,0,.37.26.63.32,0-.32.26-.38.32-.63C54,25.93,54,25.67,53.72,25.61Z"/><path class="cls-2" d="M53.08,31.29c.6-.14,1.35-.12,1.26-.95C53.74,30.47,53,30.45,53.08,31.29Z"/><path class="cls-2" d="M53.69,43.27c-.3,1.31,1,.06,0,0Z"/><path class="cls-2" d="M53.1,17.73c-.31,1.31.94.06,0,0Z"/><path class="cls-2" d="M53.07,34.75c.14-.13-.2.21,0,0Z"/><path class="cls-2" d="M52.43,45.16Z"/><path class="cls-2" d="M52.15,18.67c-1.23.78,1,.46,0,0Z"/><path class="cls-2" d="M51.83,24.35c-1,1,1.11.53,0,0Z"/><path class="cls-2" d="M51.5,31.28Z"/><path class="cls-2" d="M50.87,34.12c-.35,1.67,1,.37,0,0Z"/><path class="cls-2" d="M50.56,28.13c-1,1,1.11.53,0,0Z"/><path class="cls-2" d="M50.55,31.91c-.34,1.68,1,.38,0,0Z"/><path class="cls-2" d="M50.54,42c-.3,1.31.94.07,0,0Z"/><path class="cls-2" d="M50.54,44.84c0-.4.4-.43.31-.94C50.08,43.4,49.92,45,50.54,44.84Z"/><path class="cls-2" d="M50.46,47.33c-.3,1.31.95.06,0,0Z"/><path class="cls-2" d="M49.93,29.7Z"/><path class="cls-2" d="M49.91,40.43c-1,1,1.12.53,0,0Z"/><path class="cls-2" d="M49.91,43Z"/><path class="cls-2" d="M49,20.56Z"/><path class="cls-2" d="M48.66,35.06c-1.23.79,1,.47,0,0Z"/><path class="cls-2" d="M47.71,39.79c-.31,1.31.94.07,0,0Z"/><path class="cls-2" d="M47.41,26.55c-.31,1.31.94.06,0,0Z"/><path class="cls-2" d="M47.39,43.58c.36-2-1-.7,0,0Z"/><path class="cls-2" d="M46.79,18c-.08.45-.52.53-.63.95a1.53,1.53,0,0,1,.94.31C47.05,18.82,47.22,18.13,46.79,18Z"/><path class="cls-2" d="M46.76,41.68Z"/><path class="cls-2" d="M46.46,26.55c.13-.14-.2.2,0,0Z"/><path class="cls-2" d="M46.45,37.9c-.31,1.31.94.06,0,0Z"/><path class="cls-2" d="M45.82,32.54Z"/><path class="cls-2" d="M45.81,41.37c.13-.14-.21.2,0,0Z"/><path class="cls-2" d="M45.2,25c.88.5.88-1.36.32-1.26C45.42,24.13,45.07,24.31,45.2,25Z"/><path class="cls-2" d="M45.51,33.48Z"/><path class="cls-2" d="M44.89,22.45c.13-.14-.21.2,0,0Z"/><path class="cls-2" d="M44.57,26.86v.63c.77.49.93-1.07.32-.94C44.87,26.74,44.84,26.92,44.57,26.86Z"/><path class="cls-2" d="M44.23,44.52c-1.06-.77.76,1.06,0,0Z"/><path class="cls-2" d="M43.94,28.75c.27-.65-.82-1.42-.95-.63C43.49,28.15,43.24,28.92,43.94,28.75Z"/><path class="cls-2" d="M43.61,36.63c-.34,1.68,1,.38,0,0Z"/><path class="cls-2" d="M43.6,41.36c-1.65,0-.33,1.33,0,0Z"/><path class="cls-2" d="M42.66,43.57Z"/><path class="cls-2" d="M41.71,38.52c-.3,1.31.95.07,0,0Z"/><path class="cls-2" d="M41.1,29.69c-1,1.06,1.16,1,0,0Z"/><path class="cls-2" d="M41.08,40.1c.14-.13-.2.21,0,0Z"/><path class="cls-2" d="M40.79,25.91c-.31,1.31.94.06,0,0Z"/><path class="cls-2" d="M40.46,31.27Z"/><path class="cls-2" d="M40.46,35.68c1.11-1.27-1-.74,0,0Z"/><path class="cls-2" d="M40.45,39.78c.14-.13-.2.21,0,0Z"/><path class="cls-2" d="M40.44,46.72c.14-.13-.2.21,0,0Z"/><path class="cls-2" d="M39.5,42.62c.14-.13-.2.21,0,0Z"/><path class="cls-2" d="M37.31,29.06c.55.94,1.95-.45.95-.95C38.36,28.84,37.35,28.46,37.31,29.06Z"/><path class="cls-2" d="M37.3,37.57h.63v-.63H37.3Z"/><path class="cls-2" d="M37.61,40.73Z"/><path class="cls-2" d="M37.32,22.75c-.3,1.31,1,.07,0,0Z"/><path class="cls-2" d="M37.33,19.91c-1.47.56.29,1.48,0,0Z"/><path class="cls-2" d="M36.68,33.47Z"/><path class="cls-2" d="M35.74,30c-.35,1.67.95.37,0,0Z"/><path class="cls-2" d="M35.73,33.79c.13-.14-.21.2,0,0Z"/><path class="cls-2" d="M35.43,21.8c-.3,1.31,1,.07,0,0Z"/><path class="cls-2" d="M35.12,18Z"/><path class="cls-2" d="M34.8,24.64Z"/><path class="cls-2" d="M34.79,31.89c.68.06.14-1.12.31-1.57C34.11,29.85,33.59,32.13,34.79,31.89Z"/><path class="cls-2" d="M34.14,47.34h.63v-.63h-.63Z"/><path class="cls-2" d="M33.83,39.46h.63v-.63h-.63Z"/><path class="cls-2" d="M34.15,39.77Z"/><path class="cls-2" d="M33.85,26.53c-.35,1.67,1,.37,0,0Z"/><path class="cls-2" d="M33.19,47.34Z"/><path class="cls-2" d="M32.89,35c-1.06-.76.76,1.06,0,0Z"/><path class="cls-2" d="M32.59,22.43c.14-.13-.2.21,0,0Z"/><path class="cls-2" d="M32,24c0,.49-.8.24-.63.94.47-.05,1.16.11,1.26-.31C32.17,24.63,32.3,24.08,32,24Z"/><path class="cls-2" d="M31.63,37.56c.17-.77,1.22-.67.94-1.89C31.79,35.64,31,37.25,31.63,37.56Z"/><path class="cls-2" d="M31.63,33.78c.07-.24,0-.62.32-.63,0,.19,0,.37.31.32C32.34,31.86,30,33.63,31.63,33.78Z"/><path class="cls-2" d="M32.26,34.41h-.63C30.93,35.34,32.18,35.56,32.26,34.41Z"/><path class="cls-2" d="M31.64,29.37c-.63,0-.4-.87-1.26-.64C30,29.53,31.44,30.13,31.64,29.37Z"/><path class="cls-2" d="M31.31,41c-.31,1.31.94.07,0,0Z"/><path class="cls-2" d="M31,25.27c.13-.14-.2.2,0,0Z"/><path class="cls-2" d="M30.71,19.27Z"/><path class="cls-2" d="M29.74,36.3c0-1,.13-2.23-.95-2.21C28.35,34.62,29.14,35.84,29.74,36.3Z"/><path class="cls-2" d="M29.41,46.39c-.31,1.31.94.07,0,0Z"/><path class="cls-2" d="M28.8,26.52a2.05,2.05,0,0,1-1.57-.31v.94C27.8,27.76,28.29,26.88,28.8,26.52Z"/><path class="cls-2" d="M28.48,28.73c.14-.13-.2.21,0,0Z"/><path class="cls-2" d="M28.18,17.69c.14-.13-.2.21,0,0Z"/><path class="cls-2" d="M28.18,18.64c-1.23.78,1.05.46,0,0Z"/><path class="cls-2" d="M28.18,23.68Z"/><path class="cls-2" d="M27.84,42.92c0,.49-.05,1.09.62.95A.87.87,0,0,0,27.84,42.92Z"/><path class="cls-2" d="M27.85,31.57c.88-1.51-1-.77,0,0Z"/><path class="cls-2" d="M27.85,34.72Z"/><path class="cls-2" d="M27.2,43.23c.14-.13-.2.21,0,0Z"/><path class="cls-2" d="M26.57,44.81Z"/><path class="cls-2" d="M26.29,19.27Z"/><path class="cls-2" d="M26.27,36c-.31,1.31.94.07,0,0Z"/><path class="cls-2" d="M25,29.36c.49-.55,1.83-2.22.64-2.52C25.8,27.85,24.17,28.7,25,29.36Z"/><path class="cls-2" d="M25,45.12v1a1.37,1.37,0,0,0,1.26-.63C25.83,45.34,25.65,45,25,45.12Z"/><path class="cls-2" d="M25.65,22.74Z"/><path class="cls-2" d="M25.33,32.19Z"/><path class="cls-2" d="M25.32,37.24c-1.06-.76.76,1.06,0,0Z"/><path class="cls-2" d="M25,33.46c.13-.14-.21.2,0,0Z"/><path class="cls-2" d="M24.71,24c.13-.14-.21.2,0,0Z"/><path class="cls-2" d="M24.71,24.63c-.31,1.31.94.06,0,0Z"/><path class="cls-2" d="M24.38,33.77Z"/><path class="cls-2" d="M24.37,40.08c-.3,1.31.95.06,0,0Z"/><path class="cls-2" d="M23.77,19.58Z"/><path class="cls-2" d="M23.75,32.51Z"/><path class="cls-2" d="M23.42,44.81h.63v-.63h-.63Z"/><path class="cls-2" d="M23.73,47.64Z"/><path class="cls-2" d="M23.44,30v-1.9h-.63C23,28.74,22.3,30.28,23.44,30Z"/><path class="cls-2" d="M22.8,35.34c-1.05.46,1.23.79,0,0Z"/><path class="cls-2" d="M21.56,19.26c-.3,1.31.94.07,0,0Z"/><path class="cls-2" d="M21.55,27.14c-.3,1.31.94.07,0,0Z"/><path class="cls-2" d="M20.93,22.1c-1,1,1.11.53,0,0Z"/><path class="cls-2" d="M20.61,24.94H20v.63h.64Z"/><path class="cls-2" d="M20,45.75h.63v-.63H20Z"/><path class="cls-2" d="M19.32,46.06c-1.23.78,1,.46,0,0Z"/><path class="cls-2" d="M18.71,29Z"/><path class="cls-2" d="M18.07,33.76c.69.06,1-.25.95-.94C18.2,32.63,17.89,32.94,18.07,33.76Z"/><path class="cls-2" d="M18.7,38.18c0-.41.4-.44.31-1C18.24,36.74,18.08,38.3,18.7,38.18Z"/><path class="cls-2" d="M18.38,40.07c-.3,1.31.94.06,0,0Z"/><path class="cls-2" d="M17.77,20.52c.14-.13-.2.2,0,0Z"/><path class="cls-2" d="M17.45,27.14h-.63v.63h.63Z"/><path class="cls-2" d="M16.83,19.26c.13-.14-.21.2,0,0Z"/><path class="cls-2" d="M16.79,45.43c-.3,1.31.95.06,0,0Z"/><path class="cls-2" d="M16.5,29c-.3,1.31.95.06,0,0Z"/><path class="cls-2" d="M15.87,30.92a.87.87,0,0,0,.63.95C16.47,31.37,16.54,30.77,15.87,30.92Z"/><path class="cls-2" d="M16.49,38.47c-.5.47,0,1.33.63,1.58C17.62,39.57,17.11,38.72,16.49,38.47Z"/><path class="cls-2" d="M17.92,25.27c-1.05.46,1.22.78,0,0Z"/><path class="cls-2" d="M16.93,35.75c.36-2-1-.7,0,0Z"/><path class="cls-2" d="M84.6,38.26c-1-.86.86,1,0,0Z"/><path class="cls-2" d="M83.69,18.3c.54.19,0,1.5.62,1.58C85.14,19.41,83.81,17.73,83.69,18.3Z"/><path class="cls-2" d="M82.41,25a.87.87,0,0,1-1,.63c.52.85.59,2.14,1.58,2.52C81.76,26.91,83.74,26.05,82.41,25Z"/><path class="cls-2" d="M81.85,41.87a1.74,1.74,0,0,0-.1.19v0Z"/><path class="cls-2" d="M81.61,42.34a.89.89,0,0,0,0-.1S81.62,42.33,81.61,42.34Z"/><path class="cls-2" d="M81.44,43.31c-1,2.46.8-.55,0,0Z"/><path class="cls-2" d="M80.19,34.16c-.86,1,1-.86,0,0Z"/><path class="cls-2" d="M79.18,42.65a2.51,2.51,0,0,1,.24-.19Z"/><path class="cls-2" d="M79.07,42.73l-.1.08Z"/><path class="cls-2" d="M78,27.53c-.95-.86.86,1,0,0Z"/><path class="cls-2" d="M78,31.63c0-2.07-1.2.65,0,0Z"/><path class="cls-2" d="M77.36,30.06c-.86,1,1-.86,0,0Z"/><path class="cls-2" d="M76.66,48.17Z"/><path class="cls-2" d="M76.23,47s0,.07,0,.15A1.12,1.12,0,0,0,76.23,47Z"/><path class="cls-2" d="M76.23,47Z"/><path class="cls-2" d="M69.17,20c.87.08.11,1.78,1.26,1.58.27-.89-.44-.81-.31-1.57.17,0,.36-.26,0-.32C70.22,20.63,69.21,18.84,69.17,20Z"/><path class="cls-2" d="M64.44,21.84c-.74.52-.85,1.67-2.21,1.57C62.64,25.88,65,22.22,64.44,21.84Z"/><path class="cls-2" d="M49.93,24c-.27.83.77,1.91,1,1.26C50,25.39,51.18,23.53,49.93,24Z"/><path class="cls-2" d="M47.4,34.43c-.69.28-1.6,1.56,0,1.58C47,35.23,48.1,34.48,47.4,34.43Z"/><path class="cls-2" d="M36.68,29.37c-.86,1,1-.86,0,0Z"/><path class="cls-2" d="M34.48,23.38c.4-2-1-1.42,0,0Z"/><path class="cls-2" d="M33.86,20.22c-.39-1,1-.24.63-1.26C33.79,18.73,33.19,20.12,33.86,20.22Z"/><path class="cls-2" d="M32,22.74c.44-1.37-.16-1.95-1.26-2.52C30.14,21,31.62,21.87,32,22.74Z"/><path class="cls-2" d="M27.84,39.14c.72-.44,1.18.81,1.26,0C28.55,38.86,28.13,38.08,27.84,39.14Z"/><path class="cls-2" d="M28.46,47.34c-.86.95,1-.86,0,0Z"/><path class="cls-2" d="M26.28,29.67Z"/><path class="cls-2" d="M26.26,40.08c.07-.25.27-.37.63-.31v-.64C26.32,38.15,25.8,40.16,26.26,40.08Z"/><path class="cls-2" d="M25,42.28c.22-1.8,1.16.15,1.58-.62-.74-.1-.71-1-1.26-1.27C25.54,41.18,23.93,41.69,25,42.28Z"/><path class="cls-2" d="M21.23,31.56c.89.05.79-.89,1.26-1.26C21.6,30.25,21.7,31.19,21.23,31.56Z"/><path class="cls-2" d="M19.32,41c-.07.24-.26.36-.63.31,0,.37-.05.9.32,1C19,41.86,20.07,41.11,19.32,41Z"/><path class="cls-2" d="M17.52,18.81c1.56-1.53-.65-1,0,0Z"/><path class="cls-2" d="M16.44,24.83c.59,0,1.76-1.85.63-1.58C17.3,24.23,16.2,23.86,16.44,24.83Z"/><path class="cls-3" d="M52.94,29.68a11.4,11.4,0,0,0-1.1-.32,2.15,2.15,0,0,0-1,.29s0,0,0,0c0-.46,0-.92,0-1.39a.18.18,0,0,0-.36,0,8.33,8.33,0,0,0,.13,2.59A6.47,6.47,0,0,1,51.19,33s.07.12.06.14-.47.3-.61.32a4.84,4.84,0,0,1-.76,0c-.14,0-.35,0-.48,0-.43-.06-.22.39-.51-.33-.2-.5-.14-.43.15-.8.15-.19-.17-.37-.32-.19-.33.44-.88,1.4,0,1.75.33.13.79-.08,1.12-.08a5.17,5.17,0,0,0,1.18,0,.79.79,0,0,0,.63-.42c.14-.32,0-.28-.1-.56A11.72,11.72,0,0,0,51,31.15a4.47,4.47,0,0,1-.24-1.22.2.2,0,0,0,.2,0l.29-.13a.57.57,0,0,0-.07.31.53.53,0,0,0,.14.3l-.15,0c-.22-.09-.31.27-.09.35a2.38,2.38,0,0,0,1.56,0,.18.18,0,0,0-.1-.35,3.29,3.29,0,0,1-.53.1.49.49,0,0,0,.08-.71,4.52,4.52,0,0,0,.71.23C53.07,30.07,53.17,29.71,52.94,29.68Z"/><path class="cls-3" d="M47.13,28.33a2.87,2.87,0,0,0,.86.32,3.28,3.28,0,0,0,1.12-.17.19.19,0,0,0-.1-.36,2.34,2.34,0,0,1-1.2.13,4.47,4.47,0,0,1-.59-.27,1.15,1.15,0,0,0-.6-.13c-.61.06-.81.72-1.35.91-.22.08-.13.44.09.36C46.06,28.86,46.26,28,47.13,28.33Z"/><path class="cls-3" d="M51.61,28.59a1.68,1.68,0,0,1,.72-.25,1.88,1.88,0,0,1,.72.25c.22.1.4-.21.19-.31a2.29,2.29,0,0,0-.91-.31,2.13,2.13,0,0,0-.91.3C51.21,28.38,51.39,28.7,51.61,28.59Z"/><path class="cls-3" d="M48.25,30.35c.19-.13,0-.45-.19-.32a1.8,1.8,0,0,1-1.75.3c-.21-.1-.4.22-.19.32A2.16,2.16,0,0,0,48.25,30.35Z"/><path class="cls-3" d="M47.69,29.88a.4.4,0,0,0-.17-.36,1.13,1.13,0,0,1,.51.21,2.91,2.91,0,0,0,.46.32c.22.09.4-.22.19-.32s-.45-.38-.72-.51a1.37,1.37,0,0,0-.75-.07c-.69.09-1.05.54-1.64.84-.22.1,0,.42.18.31a4.75,4.75,0,0,0,.72-.48C46.51,30.49,47.65,30.65,47.69,29.88Z"/><path class="cls-3" d="M51.89,35.48a11.7,11.7,0,0,0-1.32-.21,11.24,11.24,0,0,1-1.64-.06,6,6,0,0,0-2.17.31c-.23,0-.13.39.1.35a10.22,10.22,0,0,1,1.55-.35c.43,0,.82.18,1.25.2.75,0,1.48,0,2.23.12C52.12,35.88,52.12,35.51,51.89,35.48Z"/><path class="cls-3" d="M51.58,36.48c0,.38-.36.63-.54.94a.18.18,0,0,0,.32.18c.22-.38.58-.64.58-1.12A.18.18,0,1,0,51.58,36.48Z"/><path class="cls-3" d="M40.49,30.65c-.2,1.32-1.46,2.1-1.41,3.46.06,1.52,1.59,1.94,1.27,3.72,0,.24.31.34.35.1a2.48,2.48,0,0,0-.58-2.47c-.34-.45-.78-.89-.68-1.53a4.47,4.47,0,0,1,.8-1.47,4.37,4.37,0,0,0,.6-1.71C40.88,30.52,40.52,30.42,40.49,30.65Z"/><path class="cls-3" d="M39.82,30.35c.41-1.08.74-2,1.23-3.08a23.24,23.24,0,0,0,1.05-2.63.18.18,0,0,0-.35-.1A29.34,29.34,0,0,1,40,28.35,14.56,14.56,0,0,0,39.56,30a19.11,19.11,0,0,1-1,1.79c-.9,1.9-1.94,4.22-1,6.28.09.21.41,0,.32-.19C36.73,35.28,38.94,32.64,39.82,30.35Z"/><path class="cls-3" d="M38.78,39.25c-.1.21.21.4.31.19a2.55,2.55,0,0,0,.3-1.35c-.06-.59-.49-1.07-.36-1.67a.19.19,0,0,0-.36-.09,1.58,1.58,0,0,0,.09,1A2.24,2.24,0,0,1,38.78,39.25Z"/><path class="cls-3" d="M53.6,37.73c-.12.85-.94,1.45-.73,2.37.05.23.41.13.35-.1-.18-.79.64-1.5.74-2.27C54,37.5,53.63,37.5,53.6,37.73Z"/><path class="cls-3" d="M54.68,36.74a4.06,4.06,0,0,0-.26,2.2c0,.23.41.13.35-.1-.24-1,.38-2,.48-3a4.06,4.06,0,0,0-.6-2.32c-.09-.22-.44-.12-.35.09A4.14,4.14,0,0,1,54.68,36.74Z"/><path class="cls-3" d="M23.55,19.67a7.68,7.68,0,0,0-1.59,0c-.49.06-.91.39-1.4.37-.23,0-.23.36,0,.37a1.46,1.46,0,0,0,.39,0,.78.78,0,0,1,.09,1,4.17,4.17,0,0,1-.47.36.19.19,0,0,0,.08.31,4.37,4.37,0,0,0,1.4,0c.72,0,1.43,0,2.15-.06a.18.18,0,0,0,.14-.28s0,0,0,0h0a.16.16,0,0,0-.09-.07c-.87-.15-.68-1.09-.5-1.7A.19.19,0,0,0,23.55,19.67Zm-2.41,2.06a.77.77,0,0,0,.41-.63,1.35,1.35,0,0,0-.26-.86,2.61,2.61,0,0,1,.5-.19,4.9,4.9,0,0,1,1.53,0,1.82,1.82,0,0,0,.19,1.63c-.4,0-.81,0-1.21,0S21.52,21.76,21.14,21.73Z"/><path class="cls-3" d="M33.22,19.69a4.06,4.06,0,0,0-1.86.16,1.42,1.42,0,0,0-.84.58l0-.12c-.47-1.11-2.23-.35-3.08-.67h-.05a.14.14,0,0,0-.13.07s0-.06-.06-.07a1.14,1.14,0,0,0-.58,0h0c-.8-.15-2.52.21-2.31,1.34.26,1.37,2,1.06,2.95,1,0,.06.05.11.12.12.77.16,2.66,0,3.15-.83.38.87,2.16.54,2.85.61.21,0,.23-.3.05-.36S33,21,33,20.7s.18-.5.4-.73A.17.17,0,0,0,33.22,19.69Zm-6,.28s0,0,0,0h0v0a1.26,1.26,0,0,1,.11,1.66C26.66,21.22,26.49,20.46,27.21,20ZM25,21.42c-.59-.45-.37-1.1.3-1.3a4,4,0,0,1,.93-.16.14.14,0,0,0,.18.07.7.7,0,0,0,.14,0,.26.26,0,0,0-.05.09,1.38,1.38,0,0,0-.13.75,1.33,1.33,0,0,0,.42.8A2.4,2.4,0,0,1,25,21.42Zm4.66.08a3.84,3.84,0,0,1-2,.26,1.64,1.64,0,0,0,.1-1.68,12,12,0,0,1,1.9,0C30.44,20.32,30.27,21.2,29.65,21.5Zm1.2-.38c-.5-.87,1.25-1.14,2-1.1a1,1,0,0,0-.23.87,1.69,1.69,0,0,0,.19.6C32.15,21.52,31.14,21.61,30.85,21.12Z"/><path class="cls-3" d="M33.75,21.91a5.08,5.08,0,0,0,2-.06,1.29,1.29,0,0,0,1.13-.93c.3-1.64-2.33-1.06-3.12-1.21a.18.18,0,0,0-.17.31h0a5.07,5.07,0,0,1,.36.45.93.93,0,0,1-.26,1.13A.19.19,0,0,0,33.75,21.91Zm2.73-1.22c.07.61-.62.79-1.1.85a8.16,8.16,0,0,1-1.22,0,1.32,1.32,0,0,0,.25-.75,1.21,1.21,0,0,0-.33-.74C35,20.07,36.37,19.86,36.48,20.69Z"/><path class="cls-3" d="M67.19,21.9c-.13.11,0,.3.13.31a22.13,22.13,0,0,0,3.73,0,.18.18,0,0,0,0-.36c-.89-.37-.37-1.21-.33-1.92a.19.19,0,0,0-.19-.18,6.17,6.17,0,0,0-3.36.61.19.19,0,0,0,.19.32h0a.15.15,0,0,0,.07.09C68,21,67.49,21.62,67.19,21.9Zm3.19-1.82c-.07.72-.31,1.31.12,1.76a22.11,22.11,0,0,1-2.7,0,.76.76,0,0,0,.31-.52.94.94,0,0,0-.37-.84A6.21,6.21,0,0,1,70.38,20.08Z"/><path class="cls-3" d="M73.77,19.71c-.84,0-2.62,0-3,1-.54,1.64,2.44,1.55,3.28,1.48,0,0,0,0,.07-.05.93.11,3.22-.12,2.83-1.58-.25-.94-1.83-.88-2.64-.66l0,0c-.18-.16-.44.1-.26.25,0,0,0,0,0,0a.16.16,0,0,0,.09.15,1.34,1.34,0,0,1-.1,1.4c-.36-.45-.61-1-.17-1.52a.19.19,0,0,0,0-.19A.18.18,0,0,0,73.77,19.71Zm2.84.86c.28.58-.47,1-.9,1.09a3.89,3.89,0,0,1-1.27.11,1.81,1.81,0,0,0,.13-1.55C75.22,20.07,76.33,20,76.61,20.57Zm-2.9,1.25a10.07,10.07,0,0,1-1.45-.08,1.79,1.79,0,0,1-.85-.22.62.62,0,0,1-.06-1,3.37,3.37,0,0,1,2.17-.47A1.47,1.47,0,0,0,73.71,21.82Z"/><path class="cls-3" d="M80.14,19.77a5.88,5.88,0,0,0-1.45.18,3.15,3.15,0,0,0-1,.29,1.05,1.05,0,0,0-.44,1.36c.49.92,2.11.55,2.93.56.11,0,.16-.1.16-.2a.18.18,0,0,0,.16.15c.91,0,2.67.24,3.15-.79a1,1,0,0,0-.4-1.26,2.14,2.14,0,0,0-1-.16c-.31,0-.62.08-.93.06a3.11,3.11,0,0,1-.44-.07c0-.17-.27-.22-.32-.06a.2.2,0,0,0-.09.17v.09a1.22,1.22,0,0,1,.07,1.21,2.49,2.49,0,0,0-.24.56c-.29-.51-.68-1.25,0-1.67A.18.18,0,0,0,80.3,20C80.32,19.9,80.28,19.77,80.14,19.77Zm1.43.55a5.68,5.68,0,0,1,.92-.05c.38,0,.83.12.84.61a.7.7,0,0,1-.37.6,4.06,4.06,0,0,1-2.25.28,2.79,2.79,0,0,0,.34-.91,1.48,1.48,0,0,0-.12-.59A2.18,2.18,0,0,0,81.57,20.32Zm-3.78,1.34a.53.53,0,0,1-.32-.48c0-.43.32-.64.68-.75a6.45,6.45,0,0,1,1.6-.27,1.53,1.53,0,0,0,.08,1.65A4.11,4.11,0,0,1,77.79,21.66Z"/><path class="cls-3" d="M74.9,42.62h-.05c-.91-.12-.88-1.81-.57-2.41a.18.18,0,0,0-.16-.28,4.91,4.91,0,0,0-1.15,0c-.41.07-.58.42-1.06.4a.19.19,0,0,0,0,.37h0s0,0,0,0c.36.13.33.78.33,1.08a1.24,1.24,0,0,1-.58,1,.18.18,0,0,0,.13.31c.52,0,1-.16,1.55-.18a4.58,4.58,0,0,1,1.38,0h0l0,0C75.06,43,75.1,42.67,74.9,42.62Zm-2.43.13a1.18,1.18,0,0,0,.11-.19,2.49,2.49,0,0,0,.09-1.05,1.53,1.53,0,0,0-.24-.87.86.86,0,0,0,.24-.11,1.12,1.12,0,0,1,.76-.25h.43a2.61,2.61,0,0,0,.24,2.25A13,13,0,0,0,72.47,42.75Z"/><path class="cls-3" d="M81.4,40a2,2,0,0,0-.54-.06s0,0-.06,0a2.06,2.06,0,0,0-2,.66,1.89,1.89,0,0,0-.28.5.91.91,0,0,0-.12-.31,1.51,1.51,0,0,0-1.06-.66,4.7,4.7,0,0,0-1.27-.16.17.17,0,0,0-.14,0,1.91,1.91,0,0,0-1.2.85,1.86,1.86,0,0,0-.06,1.58c.4.83,2,.85,2.68.55a2.12,2.12,0,0,0,1.09-1.06,1,1,0,0,0,.11.34c.31.58,1.16.76,1.76.87a2.37,2.37,0,0,0,2.1-.51C83.48,41.51,82.51,40.22,81.4,40Zm-4.73,1.4a8.94,8.94,0,0,1-.1,1.27s0,0,0,0h0s0-.06,0-.09a3,3,0,0,1-.1-2.18.19.19,0,0,0,0-.13h.07A5.56,5.56,0,0,0,76.67,41.35Zm-1.57-.43a1.32,1.32,0,0,1,.81-.62h0a.88.88,0,0,1,.17,0h0a3.45,3.45,0,0,0,.11,2.35,2.05,2.05,0,0,1-.67-.15A1.08,1.08,0,0,1,75.1,40.92Zm2.38,1.48a1.67,1.67,0,0,1-.54.2,8.78,8.78,0,0,0,.11-1.15,11,11,0,0,1-.19-1.15,4,4,0,0,1,.75.19C78.64,40.88,78.2,42,77.48,42.4Zm3.19-.11a.19.19,0,0,0-.08,0,5.89,5.89,0,0,1-.12-1.11,1.11,1.11,0,0,1,.18-.78A2.54,2.54,0,0,1,80.67,42.29Zm-1.44-1.66a1.42,1.42,0,0,1,1-.4,3.6,3.6,0,0,0,0,2.4,3,3,0,0,1-1-.35A1.06,1.06,0,0,1,79.23,40.63ZM82,42.41a1.86,1.86,0,0,1-1.06.26s0,0,0,0A2.87,2.87,0,0,0,81,40.29a1,1,0,0,1,.25,0C82.22,40.48,83.11,41.66,82,42.41Z"/><path class="cls-3" d="M66.19,25.56h6.39a.19.19,0,0,0,0-.37H66.19A.19.19,0,0,0,66.19,25.56Z"/><path class="cls-3" d="M61.63,26.79c2-.11,4.1,0,6.14,0,4.24-.1,8.53-.71,12.75-.21.23,0,.23-.33,0-.36-4-.48-8,.07-12,.18-1.89.05-3.77,0-5.66,0-1.49,0-3.37.58-4.78,0-.22-.08-.31.27-.1.36C59.12,27.24,60.41,26.86,61.63,26.79Z"/><path class="cls-3" d="M63.2,27.68c2.13,0,4.27-.13,6.4-.11s4.24,0,6.37-.05a26.1,26.1,0,0,0,4.85-.14.19.19,0,0,0-.09-.36c-1.56.37-3.48.09-5.08.15-2,.08-4,0-6.05,0-1.81,0-3.63.09-5.44.11-1.45,0-3.78.53-5.15.07-.23-.07-.32.28-.1.36C60.21,28.17,61.83,27.69,63.2,27.68Z"/><path class="cls-3" d="M78.32,29c.23,0,.24-.37,0-.36-2.88.08-5.75-.07-8.62.07s-6,.52-8.63,0c-.23-.05-.33.3-.1.35,2.51.51,5.49.19,8,.07C72.11,29,75.21,29.08,78.32,29Z"/><path class="cls-3" d="M85.35,19.13a.17.17,0,0,0-.18-.17l-67.12-.09a.18.18,0,1,0,0,.36l67,.09v4.54c-.62-1.29-1.86-1.49-3.22-1.49H75.32L58,22.34H53.89a12.57,12.57,0,0,0-2.34-2,10.83,10.83,0,0,0-11.23,2l-12.42,0H20.8c-1.49,0-2.13.16-2.57,1.31v-4a.19.19,0,0,0-.37,0q0,10.94,0,21.88a.16.16,0,0,0-.07.13,1.72,1.72,0,0,0,.06.57v4a.19.19,0,0,0,.37,0V42.83a3.8,3.8,0,0,0,2.72,1,.18.18,0,0,0,.13-.06,2.63,2.63,0,0,1,0,.41c0,.56,0,.85-.49,1.16a.18.18,0,0,0,.05.33,5.11,5.11,0,0,0,1.61.1A7.61,7.61,0,0,0,24,45.69a.15.15,0,0,0,.11-.14,3.71,3.71,0,0,0,2,.22h0A2.58,2.58,0,0,0,28,44.56a2.79,2.79,0,0,0,2.56,1.14.18.18,0,0,0,.35,0s0,0,0,0a2.15,2.15,0,0,0,2.19-1.91h6.38a.18.18,0,0,0,.16-.24,10.26,10.26,0,0,0,6.83,2.93,10.07,10.07,0,0,0,7-2.92.15.15,0,0,0,.15.12l28.85,0a.17.17,0,0,0,.17-.15A3.85,3.85,0,0,0,85,41.76v4.88l-67-.08a.18.18,0,0,0,0,.36L85.07,47a.19.19,0,0,0,.32-.12l0-27.62A.16.16,0,0,0,85.35,19.13ZM43.91,20.59a10.3,10.3,0,0,1,7.45,0,9.18,9.18,0,0,1,2,1.9.18.18,0,0,0,.17.18,19.18,19.18,0,0,1,1.9,2,14.51,14.51,0,0,1,1.68,4.88,14.71,14.71,0,0,1-1.75,11,11.84,11.84,0,0,1-2,2.51,2.06,2.06,0,0,0-.38-.89l-.28-.31A1.68,1.68,0,0,0,54,41.43a6,6,0,0,0,1.39-1.8,4.61,4.61,0,0,0,.16-1.48,20.66,20.66,0,0,1,.53-2.44,3.25,3.25,0,0,0-.3-2.29,17,17,0,0,1-1.11-1.69,6.34,6.34,0,0,1-.07-2.34A9.38,9.38,0,0,0,52,23.54c-2.41-2.87-6.31-2.73-9.32-.9A7.8,7.8,0,0,0,39,26.73a2.62,2.62,0,0,0,0,.74,3.14,3.14,0,0,1-.93,2.1,6.84,6.84,0,0,0-.51,1,29.73,29.73,0,0,1-1.47,2.8A10.86,10.86,0,0,1,37,28.45C38.44,25,40.31,22,43.91,20.59ZM37.35,39.65a.2.2,0,0,0-.29-.2,9.88,9.88,0,0,1-.39-1A17.19,17.19,0,0,1,36.13,34a36.61,36.61,0,0,0,2.14-3.89,12.1,12.1,0,0,0,1-1.69,24,24,0,0,1,.82-2.76c1.38-2.94,5.81-4.76,8.94-3.76a4.55,4.55,0,0,1,.84.37,10.63,10.63,0,0,0-2.69-.07,10.37,10.37,0,0,0-2.88.39,1.94,1.94,0,0,0-1.23,2c-.09,1.94.08,4.12-.75,5.91a9.26,9.26,0,0,1-1.38,2.15c-.1.12-.35.13-.42.3a.85.85,0,0,0,0,.79c.36,1.07,1.23,1.69,1.25,3,0,1.19-.71,3.15-1.91,3.65-.75.32-.61,0-1.13-.22C38.54,40.15,37.29,39.93,37.35,39.65Zm16.9-7.91c.23.7.88,1.21,1.2,1.87.74,1.55-.05,2.49-.25,3.89-.17,1.12-.11,2.08-1,2.94-.62.61-1.59,1.14-2.28.56a1.75,1.75,0,0,1-.18-.86c0-1.25.87-1.91,1.38-3a7.56,7.56,0,0,0,.56-1.92,35,35,0,0,0,.08-6.14,14.49,14.49,0,0,0-.23-2.53c0,.08.08.15.11.22C54.53,28.45,53.7,30.13,54.25,31.74ZM52.76,25.2a.18.18,0,0,0,0,.14c.81,1.46.6,3.67.6,5.25,0,2.22.41,4.55-.67,6.62a8.75,8.75,0,0,1-.71,1,6.34,6.34,0,0,1-1.49,1A5.47,5.47,0,0,1,48.35,39a8.11,8.11,0,0,1-3.66-2.64.19.19,0,0,0-.32.19,8.73,8.73,0,0,0,3.48,2.69,4.7,4.7,0,0,0,2.42.5,4.39,4.39,0,0,0,1.17-.61,2.24,2.24,0,0,0-.31,1.2.14.14,0,0,0,0,.07.2.2,0,0,0-.07.06c-1.45,3.36-4.93,1.08-7.13-1.27,0,0,0,0,0-.07a3.37,3.37,0,0,1-.51-1.22c-.14-.39-.39-.73-.51-1.12s-.33-1.8.13-2.16a.81.81,0,0,0,.1-.09c.11-.15-.1-.35-.25-.25s0,0-.06.07h0a1.76,1.76,0,0,1-.92.69s0,0,0,0a2.92,2.92,0,0,1-.49-1.47c0-1,.28-.51.56-1.17a12.68,12.68,0,0,0,1.31-3.86c.09-.89.21-1.79.24-2.69a3.62,3.62,0,0,1,.33-2c.43-.92.72-1,1.66-1.08a18.41,18.41,0,0,1,2.23-.12,9.28,9.28,0,0,1,3.08.29h0A9.86,9.86,0,0,1,52.76,25.2ZM42,35.41l0-.06h0a3.45,3.45,0,0,0,.43-.23,4.91,4.91,0,0,0,0,1.35,6.44,6.44,0,0,0,.54,1.4c0,.12.09.24.13.37a9.15,9.15,0,0,1-.79-1.13.18.18,0,0,0-.21-.08h0A3.57,3.57,0,0,0,42,35.41Zm.06,2h.05a15.15,15.15,0,0,0,1.27,1.49,1.68,1.68,0,0,0,.27.44.13.13,0,0,0,.16,0c.36.4.66.72.72.77a11.17,11.17,0,0,0,2.78,2.27,3.08,3.08,0,0,0,3.94-1.58,1.94,1.94,0,0,0,.34.52A9.75,9.75,0,0,1,50.74,43c-1.32,1.75-3.39,1.08-4.73-.09-.7-.61-1.57-1.13-2.22-1.78s-1.12-1.8-1.8-2.63a.15.15,0,0,0-.23,0A7.24,7.24,0,0,0,42.08,37.41Zm-19.83,8a9,9,0,0,1-1.16,0,1.54,1.54,0,0,0,.36-1.33,2.18,2.18,0,0,0-.16-1,.57.57,0,0,0-.19-.19c.28-.1.54-.26.56-.51h.73a5.07,5.07,0,0,1,.76,0s0,.2,0,.26c0,.32.06.63.07.94,0,.64-.14,1.36.26,1.82C23,45.41,22.65,45.4,22.25,45.4Zm3.62-3.11a4.83,4.83,0,0,1,0,3.14h0a.18.18,0,0,0-.08-.13c-.29-.18-.33-.88-.36-1.18a2.92,2.92,0,0,1,.23-1.6.2.2,0,0,0-.06-.24Zm-.81,2a2.35,2.35,0,0,0,.36,1.14,3.1,3.1,0,0,1-1.85-.62,4.19,4.19,0,0,1,0-1.59.12.12,0,0,0,.08-.06,2.19,2.19,0,0,1,1.75-.88s0,0-.05,0A3.44,3.44,0,0,0,25.06,44.31Zm1.23,1.07a5.32,5.32,0,0,0,0-3.06,1.8,1.8,0,0,1,1.64,1.14,1.51,1.51,0,0,0-.05.42.66.66,0,0,0,0,.15A1.79,1.79,0,0,1,26.29,45.38Zm2-1.71c.17-1.13,1-1.14,1.89-1.25a3.89,3.89,0,0,0,.1,2.88C29.32,45.2,28.12,44.91,28.31,43.67Zm2.37,1.61a3.61,3.61,0,0,1-.11-2.77,9.63,9.63,0,0,1,.36,1.57A3.3,3.3,0,0,1,30.68,45.28Zm.38,0a3.34,3.34,0,0,0,.24-1.21,12.34,12.34,0,0,0-.38-1.68c.84,0,1.73.17,1.84,1.15a.16.16,0,0,0,0,.12C32.81,44.7,32,45.19,31.06,45.29Zm8.45-1.87h-6.4c-.19-1.19-1.34-1.36-2.4-1.38a.16.16,0,0,0-.15,0c-.79.17-1.42,0-2.07.52a2.43,2.43,0,0,0-.33.38c-.32-.61-1.13-.78-1.87-.9a3.16,3.16,0,0,0-2.72.71,1.59,1.59,0,0,0-.06-.6.18.18,0,0,0-.17-.14L21.45,42a.19.19,0,0,0-.16.28c.11.2-.62.35-.76.37a.19.19,0,0,0-.16.22.16.16,0,0,0,.12.22.68.68,0,0,1,.48.37l0,0c-.92,0-2.4-.35-2.72-1.32l0-17.35a.12.12,0,0,0,.06-.08c.26-1.13.57-1.95,1.69-2.05.71-.07,1.48,0,2.2,0H40a5.51,5.51,0,0,0-.41.43,18.75,18.75,0,0,0-3.77,8.24,23.56,23.56,0,0,0,.08,4.28,10.11,10.11,0,0,0,.8,3.84,12.3,12.3,0,0,0,2.86,4Zm3.09,1.66a12.09,12.09,0,0,1-5.15-4.89,3,3,0,0,1,.41.17c.73.36,1,1,1.73.79,1-.22,1.56-1.22,1.92-2,.07-.16.12-.32.19-.48a.17.17,0,0,0,0,.11c.56.68.85,1.51,1.4,2.19a11.13,11.13,0,0,0,1.92,1.58c1.24,1,1.45,1.74,3.16,1.89a3,3,0,0,0,2.66-.72,6.45,6.45,0,0,0,1.05-2c.52.5,1.11.93,1.2,1.65,0,0,0,0,0,0A9.21,9.21,0,0,1,42.6,45.08ZM85,40.84a3.32,3.32,0,0,1-2.65,2.45.17.17,0,0,0-.08.06l-28.5,0a14.35,14.35,0,0,0,3.13-4.88A17.86,17.86,0,0,0,58,33a17.29,17.29,0,0,0-.9-5.22A9.26,9.26,0,0,0,55.38,24L54.23,22.7l14.24,0h10c1.83,0,5.64-.73,6.39,1.62a.18.18,0,0,0,.19.12q0,8.14,0,16.29A.12.12,0,0,0,85,40.84Z"/><path class="cls-3" d="M27,29c-2,.68-3.74,1.61-3.77,3.94s1.2,3.71,3.44,3.73,3.83-1.06,4-3.49-1.09-3.94-3.43-4A.17.17,0,0,0,27,29Zm3.28,4.18c-.15,2.38-1.77,3.26-4,3.12s-3-2.17-2.6-4.08c.33-1.63,1.73-2.27,3.15-2.77a.13.13,0,0,0,.09,0,3.74,3.74,0,0,1,2.66.87A3.75,3.75,0,0,1,30.3,33.13Z"/><path class="cls-3" d="M26.18,30.4a2.24,2.24,0,0,0-.9.36l-.18.08A.16.16,0,0,0,25,31a2.81,2.81,0,0,0-.86,2.45,2.34,2.34,0,0,0,2.19,2,.2.2,0,0,0,.26,0,3.2,3.2,0,0,0,.81-.09,3,3,0,0,0,.88-.39.13.13,0,0,0,.18,0,1.74,1.74,0,0,0,.11-.18,2.49,2.49,0,0,0-2.41-4.3Zm.37.55h0a.23.23,0,0,1-.18-.22h0l.25,0V31Zm-2,2.29v-.09l0,0a2.86,2.86,0,0,1,1.17-.73,2.7,2.7,0,0,0,0,2.43A1.87,1.87,0,0,1,24.51,33.24Zm4.27.72a3.53,3.53,0,0,0,0-.46,3,3,0,0,0-.06-.67c-.06-.25-.27-.5-.36-.76.29.17.6.38.65.66a.15.15,0,0,0,.18.12A2.13,2.13,0,0,1,28.78,34Zm.2-2.19a2.54,2.54,0,0,1,.15.44,3.67,3.67,0,0,0-.88-.63.18.18,0,0,0-.27.1c-.08.51.31.86.41,1.33a2.56,2.56,0,0,1-.1,1.47,2.91,2.91,0,0,1-.72.38A3.43,3.43,0,0,0,27.35,33c-.12-.21-.44,0-.31.18a3.22,3.22,0,0,1,.16,1.72.12.12,0,0,0,0,.08,2.78,2.78,0,0,1-.57.07v-1.9a.19.19,0,0,0-.37,0V35l-.17,0a.19.19,0,0,0,0-.16,2.36,2.36,0,0,1,.2-2.67c.1-.14-.06-.31-.21-.27a3.89,3.89,0,0,0-1.56.78,2.33,2.33,0,0,1,.91-1.57,4.35,4.35,0,0,1,.59-.25.61.61,0,0,0,.41.48s0,0,.08,0h0c.4,0,1.45.11,1.22-.59A1.93,1.93,0,0,1,29,31.77Zm-1.56-1.12a.17.17,0,0,0,0,.14c.06.18-.13.16-.27.17H27v-.32A2,2,0,0,1,27.42,30.65Z"/><path class="cls-3" d="M22.27,37.79c-.23,0-.33.31-.1.35a12.36,12.36,0,0,0,3.53-.27,35.79,35.79,0,0,1,5.17.23c.23,0,.23-.36,0-.37a43.61,43.61,0,0,0-4.56-.29C25.09,37.53,23.48,38,22.27,37.79Z"/><path class="cls-3" d="M32.8,38.57c-2.27,0-4.51,0-6.78.11-1.65.11-3.4-.19-5,.14-.23,0-.14.4.09.36,1.75-.36,3.73-.06,5.51-.19,2.07-.15,4.13-.07,6.19-.05A.19.19,0,0,0,32.8,38.57Z"/><path class="cls-3" d="M34.82,25.15l-14.2,0a.19.19,0,0,0,0,.37l14.2,0A.19.19,0,0,0,34.82,25.15Z"/><path class="cls-3" d="M22.75,27.39c-.74,0-1.46.12-2.2.13a.19.19,0,0,0,0,.37c.74,0,1.46-.14,2.2-.13A.19.19,0,0,0,22.75,27.39Z"/><path class="cls-3" d="M68.73,41.72c-1.22-.19-2.36-.06-3.6-.14-1.71-.12-3.37-.21-5.09-.2a.19.19,0,0,0,0,.37c1.53,0,3,0,4.56.13,1.35.13,2.69,0,4,.2C68.87,42.11,69,41.76,68.73,41.72Z"/><path class="cls-3" d="M66.41,30.45a.2.2,0,0,0-.18-.24l-1-.08a.18.18,0,0,0-.09.35,2.85,2.85,0,0,1-.63.57.15.15,0,0,0-.08.14l0,0a.19.19,0,0,0,.19.32c.39-.23.43,2.32.45,2.65a8.21,8.21,0,0,1-.44,3.55.19.19,0,0,0,.18.23,5.72,5.72,0,0,1,1.75.16c.2.06.34-.25.15-.33-1-.42-.34-2.22-.29-3C66.53,33.38,66.14,31.9,66.41,30.45Zm-1,5.78a22.83,22.83,0,0,0-.2-5,.21.21,0,0,0-.11-.15,1.25,1.25,0,0,0,.33-.52c.72.22.45.74.51,1.58a17.29,17.29,0,0,1,0,3.45A3.46,3.46,0,0,0,66,37.71a1.88,1.88,0,0,1-.71-.11C65,37.41,65.38,36.71,65.44,36.23Z"/><path class="cls-3" d="M68.42,30.29a.15.15,0,0,0-.16-.12c-1.43.08-1.65,2.63-1.65,3.68s.32,4.66,2.26,4.19a.16.16,0,0,0,.27,0l0-.12c1.49-.72,1.53-3.37,1.4-4.71S69.91,30.28,68.42,30.29Zm-.89,6.56a4.68,4.68,0,0,1-.37-1.15A8.31,8.31,0,0,1,67,33.37c0-.65.24-2.36,1-2.75a.14.14,0,0,0,.13,0c-.85,1.06-.81,2.64-.71,3.93A17.65,17.65,0,0,0,68,37c0,.13,0,.3,0,.48Q67.69,37.36,67.53,36.85Zm.78.58c-.18-.65-.54-2.87-.54-3-.08-1.22-.15-2.74.75-3.68a.32.32,0,0,0,0-.09h.23c.09.88.55,1.63.7,2.5a7.58,7.58,0,0,1-.36,3.92,2.26,2.26,0,0,1-.31.1A1.45,1.45,0,0,1,68.31,37.43Zm1.82-1.79c-.13.61-.22,1-.53,1.2a8.28,8.28,0,0,0,.34-2.34c0-1.31-.61-2.43-.77-3.68.91.52,1.07,2,1.09,3A9.14,9.14,0,0,1,70.13,35.64Z"/><path class="cls-3" d="M72.46,38.25A1.38,1.38,0,0,0,74,37.81c1.24-1.4,1.23-8.36-1.7-7.63a.15.15,0,0,0-.12.17c-1.58,1.3-1.29,3.45-1,5.28C71.39,36.62,71.28,37.86,72.46,38.25Zm1.74-1.94a2.63,2.63,0,0,1-.6,1.38,4.5,4.5,0,0,0,.21-2.17c-.1-1.61-.32-3.19-.44-4.79C74.54,31.7,74.4,35.27,74.2,36.31ZM73,30.54c.09,1.27.34,2.51.39,3.79,0,1,.44,2.68-.31,3.56a.07.07,0,0,0,0,.06h-.19a.18.18,0,0,0-.14-.09c-.4,0-.68-2.57-.73-2.9-.21-1.45-.39-3.07.56-4.31a.12.12,0,0,0,0-.14A1.17,1.17,0,0,1,73,30.54Zm-1.28.93a8.08,8.08,0,0,0,0,3.88c0,.3.11,1.07.27,1.74a9.24,9.24,0,0,1-.42-1.73A6.21,6.21,0,0,1,71.71,31.47Z"/><rect class="cls-4" x="0.02" y="19.12" width="46.67" height="29.55" rx="3.11"/><path class="cls-5" d="M45.62,16.9A3.12,3.12,0,0,1,48.74,20V43.34a3.12,3.12,0,0,1-3.12,3.11H5.18a3.11,3.11,0,0,1-3.11-3.11V20A3.11,3.11,0,0,1,5.18,16.9"/><path class="cls-6" d="M48.72,27.26c.06-.05-.09.1,0,0Z"/><path class="cls-6" d="M48.58,32.05c.43-.48-.52-.43,0,0Z"/><path class="cls-6" d="M48.3,32.75c-.15.75.43.17,0,0Z"/><path class="cls-6" d="M48.3,34.16Z"/><path class="cls-6" d="M47.43,44.06c.25,0,.7.14.56-.28A.61.61,0,0,0,47.43,44.06Z"/><path class="cls-6" d="M48.16,26.56c-.14.59.42,0,0,0Z"/><path class="cls-6" d="M48.16,34.86c-.55.35.46.2,0,0Z"/><path class="cls-6" d="M47.88,20.23c0,.14-.12.17-.14.28.14,0,.16.12.28.14,0-.14.11-.16.14-.28C48,20.37,48,20.26,47.88,20.23Z"/><path class="cls-6" d="M47.6,22.76c.26-.06.6-.05.56-.42C47.89,22.4,47.55,22.39,47.6,22.76Z"/><path class="cls-6" d="M48,40.91Z"/><path class="cls-6" d="M48,43.58Z"/><path class="cls-6" d="M47.88,28.11c-.14.58.42,0,0,0Z"/><path class="cls-6" d="M47.74,31.06H48v-.28h-.28Z"/><path class="cls-6" d="M47.88,32.33Z"/><path class="cls-6" d="M47.88,36.55Z"/><path class="cls-6" d="M47.88,37.53c-.14.59.42,0,0,0Z"/><path class="cls-6" d="M47.74,38.38c-.14.58.42,0,0,0Z"/><path class="cls-6" d="M47.6,24.31c0-.06-.1.09,0,0Z"/><path class="cls-6" d="M47.46,37c-.14.58.42,0,0,0Z"/><path class="cls-6" d="M47.31,29Z"/><path class="cls-6" d="M47.17,33.59h.29v-.28h-.29Z"/><path class="cls-6" d="M47,19.67c-.46.44.5.24,0,0Z"/><path class="cls-6" d="M47,42.88Z"/><path class="cls-6" d="M46.89,22.76Z"/><path class="cls-6" d="M46.19,39.92c.2,0,.73.62.7,0C46.54,40.11,46.31,39.51,46.19,39.92Z"/><path class="cls-6" d="M46.75,44.7c.06-.05-.09.1,0,0Z"/><path class="cls-6" d="M46.61,24c-.15.75.43.17,0,0Z"/><path class="cls-6" d="M46.61,30.64c-.15.75.43.17,0,0Z"/><path class="cls-6" d="M46.47,21.36c-.46.44.5.23,0,0Z"/><path class="cls-6" d="M46.47,23.05c-.15.74.43.16,0,0Z"/><path class="cls-6" d="M46.47,27.55c-.13.58.42,0,0,0Z"/><path class="cls-6" d="M46.47,28.81c0-.18.18-.19.14-.42C46.27,28.17,46.2,28.87,46.47,28.81Z"/><path class="cls-6" d="M46.47,30.22c-.13.58.42,0,0,0Z"/><path class="cls-6" d="M46.19,22.06Z"/><path class="cls-6" d="M46.19,26.84c-.46.44.5.24,0,0Z"/><path class="cls-6" d="M46.19,28Z"/><path class="cls-6" d="M46.19,35c-.14.58.42,0,0,0Z"/><path class="cls-6" d="M46.19,36c.06,0-.09.1,0,0Z"/><path class="cls-6" d="M45.77,18Z"/><path class="cls-6" d="M45.77,37.39Z"/><path class="cls-6" d="M45.77,41.89Z"/><path class="cls-6" d="M45.77,42.45c.06-.05-.09.1,0,0Z"/><path class="cls-6" d="M45.63,24.45c-.55.35.46.21,0,0Z"/><path class="cls-6" d="M45.63,38.23c-.16.75.42.17,0,0Z"/><path class="cls-6" d="M45.49,40.49h.28V40.2h-.28Z"/><path class="cls-6" d="M45.63,43.72Z"/><path class="cls-6" d="M45.49,41.33Z"/><path class="cls-6" d="M45.49,41.75c-.14.58.42,0,0,0Z"/><path class="cls-6" d="M45.35,40.91c-.47.2.54.35,0,0Z"/><path class="cls-6" d="M45.2,26.56c-.13.59.43,0,0,0Z"/><path class="cls-6" d="M44.92,44.56c.19,0,.13.25.28.29.06-.21.17-.24,0-.43C45.1,44.45,44.93,44.43,44.92,44.56Z"/><path class="cls-6" d="M45.06,20.65c-.13.59.43,0,0,0Z"/><path class="cls-6" d="M44.78,42.31c.13.09.52.33.42-.14C45,42.19,44.81,42.15,44.78,42.31Z"/><path class="cls-6" d="M45.06,28.25c.17-.9-.43-.31,0,0Z"/><path class="cls-6" d="M44.78,27.41Z"/><path class="cls-6" d="M44.64,31.48a.4.4,0,0,0,.28.43C44.91,31.68,44.94,31.42,44.64,31.48Z"/><path class="cls-6" d="M44.78,46.11c-.46.44.5.24,0,0Z"/><path class="cls-6" d="M44.64,20.65Z"/><path class="cls-6" d="M44.64,25.72c-.13.58.42,0,0,0Z"/><path class="cls-6" d="M44.64,37.67c.43-.47-.52-.42,0,0Z"/><path class="cls-6" d="M44.36,23.33Z"/><path class="cls-6" d="M44.36,27.26c.06-.05-.09.1,0,0Z"/><path class="cls-6" d="M44.36,46Z"/><path class="cls-6" d="M44.08,20c.39.23.39-.61.14-.56C44.18,19.58,44,19.66,44.08,20Z"/><path class="cls-6" d="M44.22,23.75Z"/><path class="cls-6" d="M43.94,18.83Z"/><path class="cls-6" d="M43.8,20.79v.29c.34.21.41-.48.14-.43C43.93,20.74,43.92,20.82,43.8,20.79Z"/><path class="cls-6" d="M43.8,43.44c-.15.74.43.16,0,0Z"/><path class="cls-6" d="M43.8,45.69c-.14.58.42,0,0,0Z"/><path class="cls-6" d="M43.66,28.67c-.47-.34.34.47,0,0Z"/><path class="cls-6" d="M43.66,37.67c-.47-.34.34.47,0,0Z"/><path class="cls-6" d="M43.66,39.36Z"/><path class="cls-6" d="M43.52,43c-.14.58.42,0,0,0Z"/><path class="cls-6" d="M43.52,21.64c.12-.29-.37-.63-.42-.28C43.32,21.37,43.21,21.72,43.52,21.64Z"/><path class="cls-6" d="M43.38,25.15c-.16.75.42.17,0,0Z"/><path class="cls-6" d="M43.38,34.16c-.14.58.42,0,0,0Z"/><path class="cls-6" d="M43.38,34.72c-.14.58.42,0,0,0Z"/><path class="cls-6" d="M43.38,27.26c-.74,0-.15.6,0,0Z"/><path class="cls-6" d="M43.38,39.92a.4.4,0,0,0-.28-.42C43.11,39.72,43.08,40,43.38,39.92Z"/><path class="cls-6" d="M43,28.25Z"/><path class="cls-6" d="M42.53,26c-.13.58.42,0,0,0Z"/><path class="cls-6" d="M42.53,39.36c-.13.58.42,0,0,0Z"/><path class="cls-6" d="M42.39,44.56c-.13.59.42,0,0,0Z"/><path class="cls-6" d="M42.25,22.06c-.43.47.52.43,0,0Z"/><path class="cls-6" d="M42.25,26.7Z"/><path class="cls-6" d="M42.25,40.91Z"/><path class="cls-6" d="M42.11,20.37c-.13.59.42,0,0,0Z"/><path class="cls-6" d="M42,22.76Z"/><path class="cls-6" d="M42,24.73c.49-.57-.45-.33,0,0Z"/><path class="cls-6" d="M42,26.56Z"/><path class="cls-6" d="M42,29.66Z"/><path class="cls-6" d="M42,35Z"/><path class="cls-6" d="M41.83,38.8Z"/><path class="cls-6" d="M41.83,42.31c.43-.47-.52-.42,0,0Z"/><path class="cls-6" d="M41.55,27.83Z"/><path class="cls-6" d="M41.13,37c0-.06-.1.09,0,0Z"/><path class="cls-6" d="M41,44.14h.28v-.28H41Z"/><path class="cls-6" d="M40.56,21.78c.25.42.87-.2.43-.42C41,21.68,40.58,21.51,40.56,21.78Z"/><path class="cls-6" d="M40.84,32.19c-.13.58.43,0,0,0Z"/><path class="cls-6" d="M40.84,35c.43-.47-.51-.43,0,0Z"/><path class="cls-6" d="M40.56,25.58h.28V25.3h-.28Z"/><path class="cls-6" d="M40.7,27Z"/><path class="cls-6" d="M40.56,30.5a.4.4,0,0,0,.28.42C40.83,30.7,40.86,30.43,40.56,30.5Z"/><path class="cls-6" d="M40.56,19c-.13.58.42,0,0,0Z"/><path class="cls-6" d="M40.56,17.7c-.65.25.13.66,0,0Z"/><path class="cls-6" d="M40.28,23.75Z"/><path class="cls-6" d="M40.14,37.39Z"/><path class="cls-6" d="M39.86,22.2c-.15.75.43.17,0,0Z"/><path class="cls-6" d="M39.86,23.89Z"/><path class="cls-6" d="M39.86,31.34c-.13.59.42,0,0,0Z"/><path class="cls-6" d="M39.86,36.55c-.15.74.43.16,0,0Z"/><path class="cls-6" d="M39.72,18.54c-.14.59.42,0,0,0Z"/><path class="cls-6" d="M39.44,19.81Z"/><path class="cls-6" d="M39.44,23.05c.3,0,.06-.5.14-.71C39.13,22.13,38.9,23.15,39.44,23.05Z"/><path class="cls-6" d="M39.16,29.94h.28v-.28h-.28Z"/><path class="cls-6" d="M39.3,31.77c-.14.58.42,0,0,0Z"/><path class="cls-6" d="M39.3,36.69c-.47.2.55.35,0,0Z"/><path class="cls-6" d="M39.3,42.17Z"/><path class="cls-6" d="M39,26.42h.28v-.28H39Z"/><path class="cls-6" d="M39.16,26.56Z"/><path class="cls-6" d="M39.16,40.49c-.14.58.42,0,0,0Z"/><path class="cls-6" d="M39,46.39h.28v-.28H39Z"/><path class="cls-6" d="M39,20.65c-.16.75.42.17,0,0Z"/><path class="cls-6" d="M38.73,29.94Z"/><path class="cls-6" d="M38.73,35Z"/><path class="cls-6" d="M38.59,24.45c-.47-.34.34.47,0,0Z"/><path class="cls-6" d="M38.45,18.83Z"/><path class="cls-6" d="M38.45,40.34c.06-.05-.09.1,0,0Z"/><path class="cls-6" d="M38.45,45.69c-.13.58.43,0,0,0Z"/><path class="cls-6" d="M38.17,19.53c0,.22-.36.11-.28.42.21,0,.52.05.56-.14C38.27,19.81,38.33,19.56,38.17,19.53Z"/><path class="cls-6" d="M38,25.58c.08-.35.55-.3.42-.85C38.1,24.72,37.77,25.44,38,25.58Z"/><path class="cls-6" d="M38.31,30.5Z"/><path class="cls-6" d="M38.31,39.64Z"/><path class="cls-6" d="M38.31,41.61c0-.19.2-.27.14-.56C38,41,37.91,41.59,38.31,41.61Z"/><path class="cls-6" d="M38,23.89c0-.11,0-.28.14-.28s0,.16.14.14C38.35,23,37.3,23.82,38,23.89Z"/><path class="cls-6" d="M38.31,24.17H38C37.72,24.59,38.28,24.68,38.31,24.17Z"/><path class="cls-6" d="M38.17,30.78Z"/><path class="cls-6" d="M38.31,43.86c-.08-.34-.12-.72-.56-.7C37.84,43.49,37.94,43.81,38.31,43.86Z"/><path class="cls-6" d="M38,21.92c-.28,0-.18-.38-.56-.28C37.32,22,37.94,22.26,38,21.92Z"/><path class="cls-6" d="M37.89,27.12c-.13.59.42,0,0,0Z"/><path class="cls-6" d="M37.89,45.27Z"/><path class="cls-6" d="M37.75,20.09Z"/><path class="cls-6" d="M37.75,34.16Z"/><path class="cls-6" d="M37.61,17.42Z"/><path class="cls-6" d="M37.47,40.91c-.43.47.52.42,0,0Z"/><path class="cls-6" d="M37.19,42.74Z"/><path class="cls-6" d="M37.19,25c0-.46.06-1-.42-1C36.57,24.27,36.92,24.81,37.19,25Z"/><path class="cls-6" d="M37.05,29.51c-.14.59.42,0,0,0Z"/><path class="cls-6" d="M36.91,30.64Z"/><path class="cls-6" d="M36.77,37.53h.28v-.28h-.28Z"/><path class="cls-6" d="M36.48,32.05c.4,0,.41-.35.43-.71C36.48,31.29,36.61,31.8,36.48,32.05Z"/><path class="cls-6" d="M36.77,20.65a.91.91,0,0,1-.71-.14v.43C36.32,21.21,36.54,20.82,36.77,20.65Z"/><path class="cls-6" d="M36.63,21.64c0-.06-.1.09,0,0Z"/><path class="cls-6" d="M36.63,33.17c0-.06-.1.09,0,0Z"/><path class="cls-6" d="M36.63,33.59c-.14.59.42,0,0,0Z"/><path class="cls-6" d="M36.63,46.11c0-.06-.1.09,0,0Z"/><path class="cls-6" d="M36.48,17.14c-.54.35.47.2,0,0Z"/><path class="cls-6" d="M36.48,19.39Z"/><path class="cls-6" d="M36.34,28c0,.22,0,.49.29.42A.39.39,0,0,0,36.34,28Z"/><path class="cls-6" d="M36.48,39.22c-.13.58.43,0,0,0Z"/><path class="cls-6" d="M36.48,42.31Z"/><path class="cls-6" d="M36.34,22.9c.4-.67-.46-.34,0,0Z"/><path class="cls-6" d="M36.34,24.31Z"/><path class="cls-6" d="M36.34,35.28c-.15.75.43.17,0,0Z"/><path class="cls-6" d="M36.2,35Z"/><path class="cls-6" d="M36.06,28.11Z"/><path class="cls-6" d="M36.06,37.25Z"/><path class="cls-6" d="M35.78,28.81Z"/><path class="cls-6" d="M35.78,30.78Z"/><path class="cls-6" d="M35.78,35.7Z"/><path class="cls-6" d="M35.78,36.41c-.13.58.42,0,0,0Z"/><path class="cls-6" d="M35.64,17.42Z"/><path class="cls-6" d="M35.64,24.87c-.13.59.42,0,0,0Z"/><path class="cls-6" d="M35.64,33.17Z"/><path class="cls-6" d="M35.08,21.92c.21-.24.81-1,.28-1.13C35.43,21.25,34.7,21.63,35.08,21.92Z"/><path class="cls-6" d="M35.08,29v.42a.61.61,0,0,0,.56-.28C35.45,29.05,35.37,28.89,35.08,29Z"/><path class="cls-6" d="M35.64,45.55h-.28v.28h.28Z"/><path class="cls-6" d="M35.36,19Z"/><path class="cls-6" d="M35.22,30.92c0-.2.23-.24.28-.42C35.21,30.38,34.87,30.86,35.22,30.92Z"/><path class="cls-6" d="M35.36,31.91Z"/><path class="cls-6" d="M35.36,35.56c-.15.75.43.17,0,0Z"/><path class="cls-6" d="M35.36,44Z"/><path class="cls-6" d="M35.22,23.19Z"/><path class="cls-6" d="M35.22,25.44c-.47-.34.34.47,0,0Z"/><path class="cls-6" d="M35.22,32.19Z"/><path class="cls-6" d="M35.08,23.75Z"/><path class="cls-6" d="M35.08,38.23c.06,0-.09.1,0,0Z"/><path class="cls-6" d="M34.94,19.53Z"/><path class="cls-6" d="M34.94,19.81c-.14.58.42,0,0,0Z"/><path class="cls-6" d="M34.94,36.41Z"/><path class="cls-6" d="M34.8,23.89Z"/><path class="cls-6" d="M34.8,26.7c-.14.59.42,0,0,0Z"/><path class="cls-6" d="M34.8,44.56c-.14.59.42,0,0,0Z"/><path class="cls-6" d="M34.52,17.56Z"/><path class="cls-6" d="M34.52,23.33Z"/><path class="cls-6" d="M34.38,28.81h.28v-.28h-.28Z"/><path class="cls-6" d="M34.52,30.08Z"/><path class="cls-6" d="M34.52,32.89Z"/><path class="cls-6" d="M34.38,35.28c-.14.59.42,0,0,0Z"/><path class="cls-6" d="M34.38,37c-.14.58.42,0,0,0Z"/><path class="cls-6" d="M34.23,38.38a.39.39,0,0,0,.29.42C34.5,38.58,34.54,38.31,34.23,38.38Z"/><path class="cls-6" d="M34.38,22.2v-.84h-.29C34.18,21.65,33.87,22.33,34.38,22.2Z"/><path class="cls-6" d="M34.09,32.89h.29v-.28h-.29Z"/><path class="cls-6" d="M34,37.67c.19,0,.13.25.28.28,0-.18.18-.19.15-.42C34.21,37.55,34,37.51,34,37.67Z"/><path class="cls-6" d="M34.09,24.59c-.46.21.55.35,0,0Z"/><path class="cls-6" d="M34.09,39.36Z"/><path class="cls-6" d="M34,30.78Z"/><path class="cls-6" d="M34,34.58Z"/><path class="cls-6" d="M33.67,35.7a.39.39,0,0,0,.42-.28A.39.39,0,0,0,33.67,35.7Z"/><path class="cls-6" d="M34,44.56Z"/><path class="cls-6" d="M33.53,31.06c-.44.39.45.6,0,1C34.23,31.94,33.86,31.39,33.53,31.06Z"/><path class="cls-6" d="M33.81,33.87c-.13.59.42,0,0,0Z"/><path class="cls-6" d="M33.53,42.59c.2,0,.24.24.42.29v-.43C33.79,42.48,33.55,42.43,33.53,42.59Z"/><path class="cls-6" d="M33.53,46.25h.28V46h-.28Z"/><path class="cls-6" d="M33.53,17.42c-.13.58.42,0,0,0Z"/><path class="cls-6" d="M33.53,20.94c-.13.58.42,0,0,0Z"/><path class="cls-6" d="M33.25,18.68c-.46.44.5.24,0,0Z"/><path class="cls-6" d="M33.25,31.06q0-.46-.42-.42Q32.78,31.1,33.25,31.06Z"/><path class="cls-6" d="M33.11,32.61c-.13.58.42,0,0,0Z"/><path class="cls-6" d="M33.11,20h-.28v.28h.28Z"/><path class="cls-6" d="M32.83,29.23h.28V29h-.28Z"/><path class="cls-6" d="M33,32.19Z"/><path class="cls-6" d="M33,36.83c-.47.2.55.35,0,0Z"/><path class="cls-6" d="M32.69,35.14Z"/><path class="cls-6" d="M32.55,29.37c-.55.35.46.21,0,0Z"/><path class="cls-6" d="M32.69,39.92h-.28v.42C32.66,40.36,32.74,40.2,32.69,39.92Z"/><path class="cls-6" d="M32.55,43.58Z"/><path class="cls-6" d="M32.27,21.78c0-.06-.1.09,0,0Z"/><path class="cls-6" d="M32,23.89c.31,0,.45-.12.43-.42C32,23.38,31.9,23.52,32,23.89Z"/><path class="cls-6" d="M32.27,25.86c0-.18.18-.2.14-.42C32.06,25.22,32,25.91,32.27,25.86Z"/><path class="cls-6" d="M32.27,36.13c0-.06-.1.09,0,0Z"/><path class="cls-6" d="M32.27,41.61c-.46.44.49.24,0,0Z"/><path class="cls-6" d="M32.12,20.37Z"/><path class="cls-6" d="M32.12,26.7c-.13.59.43,0,0,0Z"/><path class="cls-6" d="M32.12,34.44Z"/><path class="cls-6" d="M32,38.09c-.13.59.43,0,0,0Z"/><path class="cls-6" d="M32,42.74Z"/><path class="cls-6" d="M32,45.55Z"/><path class="cls-6" d="M31.84,18Z"/><path class="cls-6" d="M31.28,33.73c.17.08-.1.55.56.43a.63.63,0,0,0-.14-.43c.11,0,.28,0,.28-.14C31.78,33.67,31.26,33.43,31.28,33.73Z"/><path class="cls-6" d="M31.7,39.36c-.46.2.55.35,0,0Z"/><path class="cls-6" d="M31.7,20.94h-.28v.28h.28Z"/><path class="cls-6" d="M31.42,17.42Z"/><path class="cls-6" d="M31.42,29.09c-.13.59.42,0,0,0Z"/><path class="cls-6" d="M31.28,21.78c-.13.58.42,0,0,0Z"/><path class="cls-6" d="M31,22.62a.4.4,0,0,0,.28.43C31.27,22.82,31.3,22.56,31,22.62Z"/><path class="cls-6" d="M30.86,26.28c-.22.21,0,.59.28.7C31.36,26.77,31.14,26.39,30.86,26.28Z"/><path class="cls-6" d="M30.86,32.61c0,.37.05.6.42.56C31.22,32.9,31.23,32.57,30.86,32.61Z"/><path class="cls-6" d="M31,38.8c-.55.35.47.2,0,0Z"/><path class="cls-6" d="M30.86,21.08c-.47.2.55.35,0,0Z"/><path class="cls-6" d="M31,25c.16-.9-.43-.3,0,0Z"/><path class="cls-6" d="M30.86,35.84c.39-.67-.46-.34,0,0Z"/><path class="cls-6" d="M30.86,43.86c-.15.75.43.17,0,0Z"/><path class="cls-6" d="M30.72,31.77Z"/><path class="cls-6" d="M30.44,34.86c-.14.58.42,0,0,0Z"/><path class="cls-6" d="M30.44,44Z"/><path class="cls-6" d="M30,18.83c-.46.43.49.23,0,0Z"/><path class="cls-6" d="M30,43.58c.05-.06-.1.09,0,0Z"/><path class="cls-6" d="M29.87,21.08Z"/><path class="cls-6" d="M29.87,43.72c-.29,0,.21-.38-.28-.42-.08.4-.1.24-.28.7A.61.61,0,0,0,29.87,43.72Z"/><path class="cls-6" d="M29.45,25.58a.4.4,0,0,0,.28.42A.38.38,0,0,0,29.45,25.58Z"/><path class="cls-6" d="M29.59,32.61Z"/><path class="cls-6" d="M29.45,29.37c.06-.05-.09.1,0,0Z"/><path class="cls-6" d="M29.31,30.92h.28v-.28h-.28Z"/><path class="cls-6" d="M29.59,35.14c0-.22,0-.49-.28-.42A.39.39,0,0,0,29.59,35.14Z"/><path class="cls-6" d="M29.45,39.92c-.15.75.43.17,0,0Z"/><path class="cls-6" d="M29,18.4Z"/><path class="cls-6" d="M29,27.41Z"/><path class="cls-6" d="M28.89,21.92c-.46.44.5.24,0,0Z"/><path class="cls-6" d="M28.89,26.42h-.28v.28h.28Z"/><path class="cls-6" d="M28.05,44.56c.24-.12.7,0,.84-.28C28.56,44.18,28,44,28.05,44.56Z"/><path class="cls-6" d="M28.61,42.74c-.46.43.5.23,0,0Z"/><path class="cls-6" d="M27.91,21.36c.4,0,.85-.73.56-1C28.36,20.78,27.8,20.74,27.91,21.36Z"/><path class="cls-6" d="M28.47,35.84c-.14.59.42,0,0,0Z"/><path class="cls-6" d="M28.47,41.33c-.46.44.5.24,0,0Z"/><path class="cls-6" d="M28.19,19Z"/><path class="cls-6" d="M28.19,24.45c0,.28-.39.18-.28.56C28.22,25.12,28.48,24.5,28.19,24.45Z"/><path class="cls-6" d="M28.05,26.42c0,.32,0,.53.28.56C28.3,26.73,28.47,26.28,28.05,26.42Z"/><path class="cls-6" d="M28.19,30.08Z"/><path class="cls-6" d="M28.19,37.25Z"/><path class="cls-6" d="M28.05,17Z"/><path class="cls-6" d="M28.05,33.73Z"/><path class="cls-6" d="M27.76,17.42c0,.21-.05.52.15.56C28.09,17.79,28.09,17.46,27.76,17.42Z"/><path class="cls-6" d="M27.91,33.45c.05-.06-.1.09,0,0Z"/><path class="cls-6" d="M27.76,23.19Z"/><path class="cls-6" d="M27.76,36.13c-.13.58.43,0,0,0Z"/><path class="cls-6" d="M27.76,40.34c-.13.59.43,0,0,0Z"/><path class="cls-6" d="M27.2,17.28c-.13.58.42,0,0,0Z"/><path class="cls-6" d="M27.2,29.8c-.13.58.42,0,0,0Z"/><path class="cls-6" d="M27.06,31.06c.34.34.37-.46.14-.42C27.21,30.64,27.12,31.12,27.06,31.06Z"/><path class="cls-6" d="M27.2,36.27Z"/><path class="cls-6" d="M27.06,23.89Z"/><path class="cls-6" d="M27.06,34.86c-.15.75.43.17,0,0Z"/><path class="cls-6" d="M27.06,37c-.47-.34.34.47,0,0Z"/><path class="cls-6" d="M27.06,40.77Z"/><path class="cls-6" d="M26.92,27.26c-.15.75.43.17,0,0Z"/><path class="cls-6" d="M26.92,32.89Z"/><path class="cls-6" d="M26.92,38.09c-.13.59.42,0,0,0Z"/><path class="cls-6" d="M27.06,42.31v-.56A.3.3,0,1,0,27.06,42.31Z"/><path class="cls-6" d="M26.5,21.92c0,.32,0,.53.28.56C26.75,22.23,26.92,21.78,26.5,21.92Z"/><path class="cls-6" d="M26.5,23.61v.28h.28v-.28Z"/><path class="cls-6" d="M26.78,30.92H26.5c0,.25-.14.71.28.56Z"/><path class="cls-6" d="M26.64,31.62c.06-.05-.09.1,0,0Z"/><path class="cls-6" d="M26.22,44.14h.56A.3.3,0,1,0,26.22,44.14Z"/><path class="cls-6" d="M26.5,27.41Z"/><path class="cls-6" d="M26.5,45Z"/><path class="cls-6" d="M26.36,17.42Z"/><path class="cls-6" d="M26.36,20.65Z"/><path class="cls-6" d="M26.36,43.16c-.15.74.43.16,0,0Z"/><path class="cls-6" d="M26.22,23.33Z"/><path class="cls-6" d="M26.22,24.17Z"/><path class="cls-6" d="M26.22,25.58Z"/><path class="cls-6" d="M26.05,36.46c0,.09.06.86,0,.37C26.06,36.59,26.05,36.49,26.05,36.46Z"/><path class="cls-6" d="M26.08,37.53Z"/><path class="cls-6" d="M25.94,23.61c-.14.58.42,0,0,0Z"/><path class="cls-6" d="M25.94,29.51Z"/><path class="cls-6" d="M25.94,41.33c0-.06-.1.09,0,0Z"/><path class="cls-6" d="M25.66,38h.28v-.28h-.28Z"/><path class="cls-6" d="M25.8,46.11c.05-.06-.1.09,0,0Z"/><path class="cls-6" d="M25.37,28.39c.14.09.52.33.43-.14C25.63,28.27,25.4,28.22,25.37,28.39Z"/><path class="cls-6" d="M25.52,35.43h0Z"/><path class="cls-6" d="M25.52,35.43Z"/><path class="cls-6" d="M25.51,17.84c-.13.59.43,0,0,0Z"/><path class="cls-6" d="M25.51,19.11Z"/><path class="cls-6" d="M25.51,20.79c.06-.05-.09.1,0,0Z"/><path class="cls-6" d="M25.51,24.59c-.13.59.43,0,0,0Z"/><path class="cls-6" d="M25.23,27c.2,0,.24.23.43.28C25.78,27,25.29,26.63,25.23,27Z"/><path class="cls-6" d="M25.51,42.31Z"/><path class="cls-6" d="M25.37,18.83Z"/><path class="cls-6" d="M25.09,19.39h.28v-.28h-.28Z"/><path class="cls-6" d="M25.23,32.19c.39-.68-.46-.34,0,0Z"/><path class="cls-6" d="M25.09,42.74c.25,0,.33-.14.28-.43h-.28Z"/><path class="cls-6" d="M25.09,23.05c-.55.34.47.2,0,0Z"/><path class="cls-6" d="M25.09,23.89Z"/><path class="cls-6" d="M25,22.06Z"/><path class="cls-6" d="M25,41.75Z"/><path class="cls-6" d="M24.81,23.61c-.13.58.42,0,0,0Z"/><path class="cls-6" d="M24.81,32.75Z"/><path class="cls-6" d="M24.67,41.75c-.55.35.47.21,0,0Z"/><path class="cls-6" d="M24.67,44c-.13.59.42,0,0,0Z"/><path class="cls-6" d="M24.53,20Z"/><path class="cls-6" d="M24,21.78c.07.2-.17.73.14.7.09-.51.71.38.56-.28C24.19,22.31,24.49,21.63,24,21.78Z"/><path class="cls-6" d="M24.53,33.31Z"/><path class="cls-6" d="M24.53,40.34c-.47.21.55.35,0,0Z"/><path class="cls-6" d="M24.53,45.69c-.13.58.42,0,0,0Z"/><path class="cls-6" d="M24.39,20.65c-.13.59.42,0,0,0Z"/><path class="cls-6" d="M24.39,22.76Z"/><path class="cls-6" d="M24.25,25.15h.28v-.28h-.28Z"/><path class="cls-6" d="M24.39,27.26c-.05.19-.2.27-.14.57C24.64,28.05,24.64,27.22,24.39,27.26Z"/><path class="cls-6" d="M24.39,42.31Z"/><path class="cls-6" d="M23.69,18.68h.56a.8.8,0,0,1,.14-.56C24.05,18.2,23.67,18.24,23.69,18.68Z"/><path class="cls-6" d="M24.11,23.33c-.05.19-.2.26-.14.56h.42A.61.61,0,0,0,24.11,23.33Z"/><path class="cls-6" d="M24.11,29.09c0,.21-.05.52.14.57C24.43,29.47,24.43,29.13,24.11,29.09Z"/><path class="cls-6" d="M24.25,31.34Z"/><path class="cls-6" d="M24.11,25.3c-1,.38.12.3-.42,1C24.18,26.31,24.38,25.61,24.11,25.3Z"/><path class="cls-6" d="M24.11,44.28Z"/><path class="cls-6" d="M24,20.65a.45.45,0,0,0,.14.71C24,21.15,24.27,20.63,24,20.65Z"/><path class="cls-6" d="M23.83,27.41v.42c.25,0,.33-.14.28-.42Z"/><path class="cls-6" d="M24,39.78Z"/><path class="cls-6" d="M23.69,19.11Z"/><path class="cls-6" d="M23.83,20.09a.63.63,0,0,0-.28-.56C23.24,19.82,23.54,20,23.83,20.09Z"/><path class="cls-6" d="M23.26,19c-.13.58.43,0,0,0Z"/><path class="cls-6" d="M23.26,22.9c.06,0-.09.1,0,0Z"/><path class="cls-6" d="M23.12,17.42Z"/><path class="cls-6" d="M23.12,20.37Z"/><path class="cls-6" d="M23.12,22.48c.5-.57-.45-.33,0,0Z"/><path class="cls-6" d="M23.12,30.08Z"/><path class="cls-6" d="M23.12,44.85Z"/><path class="cls-6" d="M23.12,27v-.56h-.28C22.87,26.67,22.7,27.12,23.12,27Z"/><path class="cls-6" d="M23,32.19Z"/><path class="cls-6" d="M22.84,33.17Z"/><path class="cls-6" d="M22.84,41.05c-.55.35.47.2,0,0Z"/><path class="cls-6" d="M23,45c-.81-.15-.06.6,0,0Z"/><path class="cls-6" d="M22.7,19.39c.53-.69-.49-.52,0,0Z"/><path class="cls-6" d="M22.7,20.37c-.46.44.5.24,0,0Z"/><path class="cls-6" d="M22.7,22.9c-.46.21.55.35,0,0Z"/><path class="cls-6" d="M22.56,34.16h.28v-.29h-.28Z"/><path class="cls-6" d="M22.56,25c-.46.21.55.35,0,0Z"/><path class="cls-6" d="M22.42,32.75h.28v-.28h-.28Z"/><path class="cls-6" d="M22.28,17.42c-.13.58.42,0,0,0Z"/><path class="cls-6" d="M22.28,20c-.13.59.42,0,0,0Z"/><path class="cls-6" d="M22.28,41.33Z"/><path class="cls-6" d="M22.28,42Z"/><path class="cls-6" d="M22,33.31h.28V33H22Z"/><path class="cls-6" d="M21.86,23.75v.42c.25,0,.33-.14.28-.42Z"/><path class="cls-6" d="M21.86,19.25Z"/><path class="cls-6" d="M21.86,39.22Z"/><path class="cls-6" d="M21.86,39.92Z"/><path class="cls-6" d="M21.58,17.14c0,.22,0,.49.28.42A.39.39,0,0,0,21.58,17.14Z"/><path class="cls-6" d="M21.72,19.67Z"/><path class="cls-6" d="M21.72,20c-.46.44.49.24,0,0Z"/><path class="cls-6" d="M21.72,24.31Z"/><path class="cls-6" d="M21.72,29.09Z"/><path class="cls-6" d="M21.58,32.33v.42c.25,0,.33-.14.28-.42Z"/><path class="cls-6" d="M21.58,21.08Z"/><path class="cls-6" d="M21.58,29.51c-.46.44.49.24,0,0Z"/><path class="cls-6" d="M21.29,41.89a.62.62,0,0,0,.29.56C21.84,42.21,21.54,42,21.29,41.89Z"/><path class="cls-6" d="M21.29,21.92h.29v-.28h-.29Z"/><path class="cls-6" d="M21.44,25.15Z"/><path class="cls-6" d="M21,26c.32,0,.53,0,.57-.28C21.26,25.68,21.05,25.75,21,26Z"/><path class="cls-6" d="M21.44,44.14c-.14.59.42,0,0,0Z"/><path class="cls-6" d="M21.29,18.68c-.13.59.43,0,0,0Z"/><path class="cls-6" d="M21.05,22Z"/><path class="cls-6" d="M21.39,22.07h0Z"/><path class="cls-6" d="M21.24,22.05h0Z"/><path class="cls-6" d="M21.39,22.07h0Z"/><path class="cls-6" d="M21.24,22.05h0Z"/><path class="cls-6" d="M21,20.09a.4.4,0,0,0,.28.42C21.28,20.29,21.31,20,21,20.09Z"/><path class="cls-6" d="M20.87,24.31h.28C21.62,24.05,20.73,23.62,20.87,24.31Z"/><path class="cls-6" d="M21.15,18.4h-.42C20.53,18.81,21.36,18.81,21.15,18.4Z"/><path class="cls-6" d="M21,27.41c-.13.58.43,0,0,0Z"/><path class="cls-6" d="M21,28.11Z"/><path class="cls-6" d="M20.73,22.34Z"/><path class="cls-6" d="M20.59,27.55c.43-.48-.52-.43,0,0Z"/><path class="cls-6" d="M20.59,28.67Z"/><path class="cls-6" d="M20.59,41.89Z"/><path class="cls-6" d="M20.59,28.39a.39.39,0,0,0-.28-.42C20.32,28.19,20.29,28.46,20.59,28.39Z"/><path class="cls-6" d="M20.31,37.81Z"/><path class="cls-6" d="M20.17,18.83Z"/><path class="cls-6" d="M20.17,20.51c-.46.44.5.24,0,0Z"/><path class="cls-6" d="M19.75,21.36a.61.61,0,0,1,.42.14C20.62,21,19.76,20.7,19.75,21.36Z"/><path class="cls-6" d="M20.17,36c.43-.47-.52-.42,0,0Z"/><path class="cls-6" d="M20,17.56Z"/><path class="cls-6" d="M20,22.9c-.13.59.42,0,0,0Z"/><path class="cls-6" d="M19.89,25.15h.28v-.28h-.28Z"/><path class="cls-6" d="M20,26.56c-.13.59.42,0,0,0Z"/><path class="cls-6" d="M20,39.78Z"/><path class="cls-6" d="M20.17,41.75c.16-.9-.43-.31,0,0Z"/><path class="cls-6" d="M19.75,24.59Z"/><path class="cls-6" d="M19.61,22.62c-.14.59.42,0,0,0Z"/><path class="cls-6" d="M19.61,26.28c-.14.58.42,0,0,0Z"/><path class="cls-6" d="M19.61,28.25Z"/><path class="cls-6" d="M19.61,28.53Z"/><path class="cls-6" d="M19.19,21.36c.35-.62-.51-.81,0,0Z"/><path class="cls-6" d="M19.19,29.37c-.14.59.42,0,0,0Z"/><path class="cls-6" d="M19.19,30.36c0-.06-.1.09,0,0Z"/><path class="cls-6" d="M19.19,44.14c0-.06-.1.09,0,0Z"/><path class="cls-6" d="M19.05,17.14c.05-.06-.1.09,0,0Z"/><path class="cls-6" d="M19.05,18.83c.05-.06-.1.09,0,0Z"/><path class="cls-6" d="M19.05,37.25c.05-.06-.1.09,0,0Z"/><path class="cls-6" d="M18.62,22.34h.28C19.37,22.08,18.48,21.66,18.62,22.34Z"/><path class="cls-6" d="M18.76,46.25c-.31-.48.68-.24,0,0Z"/><path class="cls-6" d="M18.34,18.83c0-.11.12-.17.28-.15s0,.28.14.29V18.4C18.41,18.25,18,18.7,18.34,18.83Z"/><path class="cls-6" d="M18.48,25.44v.42c.25,0,.33-.14.28-.42Z"/><path class="cls-6" d="M18.62,26.7c-.13.59.42,0,0,0Z"/><path class="cls-6" d="M18.48,39.92Z"/><path class="cls-6" d="M18.2,33.73c-.13.59.42,0,0,0Z"/><path class="cls-6" d="M17.92,19c-.55.35.47.2,0,0Z"/><path class="cls-6" d="M17.92,32.47Z"/><path class="cls-6" d="M17.78,40.63c0,.19-.2.26-.14.56h.42A.61.61,0,0,0,17.78,40.63Z"/><path class="cls-6" d="M17.78,17.28c-.14.58.42,0,0,0Z"/><path class="cls-6" d="M17.78,24.59c-.46.44.5.24,0,0Z"/><path class="cls-6" d="M17.78,33.17Z"/><path class="cls-6" d="M17.64,20.51c-.46.44.5.24,0,0Z"/><path class="cls-6" d="M17.64,21.22c-.14.58.42,0,0,0Z"/><path class="cls-6" d="M17.78,23.47c0-.25.14-.71-.28-.57C17.46,23.22,17.53,23.43,17.78,23.47Z"/><path class="cls-6" d="M17.64,35.7Z"/><path class="cls-6" d="M17.5,25.58Z"/><path class="cls-6" d="M17.5,39.64Z"/><path class="cls-6" d="M17.08,19.53c0-.37.54-.11.42-.56C17.19,18.91,16.72,19.39,17.08,19.53Z"/><path class="cls-6" d="M17.36,28.39c-.14.58.42,0,0,0Z"/><path class="cls-6" d="M17.36,29.51c.06-.05-.1.1,0,0Z"/><path class="cls-6" d="M17.36,33.87c.06,0-.1.1,0,0Z"/><path class="cls-6" d="M17.36,45.41c-.14.58.42,0,0,0Z"/><path class="cls-6" d="M17.08,21.5h.28v-.28h-.28Z"/><path class="cls-6" d="M17.22,23.47a.39.39,0,0,0-.28-.42C17,23.27,16.92,23.53,17.22,23.47Z"/><path class="cls-6" d="M16.94,31.91c0-.06-.1.09,0,0Z"/><path class="cls-6" d="M16.79,17.42Z"/><circle class="cls-1" cx="16.79" cy="18.54" r="0.2"/><path class="cls-6" d="M16.79,33.59Z"/><path class="cls-6" d="M16.79,38.52c-.15.74.43.16,0,0Z"/><path class="cls-6" d="M16.79,44.42c-.13.59.43,0,0,0Z"/><path class="cls-6" d="M16.37,17.56Z"/><path class="cls-6" d="M16.37,22.06Z"/><path class="cls-6" d="M16.37,29.51c0,.22-.05.52.14.57C16.49,29.87,16.56,29.56,16.37,29.51Z"/><path class="cls-6" d="M16.37,30.5c-.13.58.42,0,0,0Z"/><path class="cls-6" d="M16.37,43.16h-.28v.28h.28Z"/><path class="cls-6" d="M15.81,24.31h.42c0-.16,0-.4-.14-.42C16.06,24.09,15.86,24.13,15.81,24.31Z"/><path class="cls-6" d="M16,41.89h-.28v.28H16Z"/><path class="cls-6" d="M15.53,27.55Z"/><path class="cls-6" d="M15.53,31.2Z"/><path class="cls-6" d="M15.39,29.8c0,.08,0,.16-.14.14v.28C15.59,30.44,15.66,29.74,15.39,29.8Z"/><path class="cls-6" d="M15.25,38.23c-.47.21.55.35,0,0Z"/><path class="cls-6" d="M15.11,21.5Z"/><path class="cls-6" d="M15.11,24.87c-.14.59.42,0,0,0Z"/><path class="cls-6" d="M15.11,41.47Z"/><path class="cls-6" d="M14.83,22.06c0-.22,0-.49-.29-.42A.39.39,0,0,0,14.83,22.06Z"/><path class="cls-6" d="M14.4,30.5c.28,0,.28.19.43.28C15,30.28,14.48,30,14.4,30.5Z"/><path class="cls-6" d="M14.68,36c.06,0-.09.1,0,0Z"/><path class="cls-6" d="M14.54,21.08Z"/><path class="cls-6" d="M14.26,23.47c0-.33.41-.16.42-.42C14.28,22.85,13.84,23.3,14.26,23.47Z"/><path class="cls-6" d="M14.54,25Z"/><path class="cls-6" d="M14.12,31.48c-.15.75.43.17,0,0Z"/><path class="cls-6" d="M14.12,34.3c-.13.58.42,0,0,0Z"/><path class="cls-6" d="M14,37.39c.34.34.37-.46.14-.42C14.13,37,14,37.44,14,37.39Z"/><path class="cls-6" d="M14,30.64c0-.18.18-.19.14-.42C13.78,30,13.71,30.7,14,30.64Z"/><path class="cls-6" d="M13.84,23.75Z"/><path class="cls-6" d="M13.7,27Z"/><path class="cls-6" d="M13.7,34.44c-.13.58.42,0,0,0Z"/><path class="cls-6" d="M13.7,37Z"/><path class="cls-6" d="M13.42,35c-.15.75.43.17,0,0Z"/><path class="cls-6" d="M13.42,40.77c-.47-.34.34.47,0,0Z"/><path class="cls-6" d="M13.28,18.54c-.55.35.46.21,0,0Z"/><path class="cls-6" d="M13.28,30.78Z"/><path class="cls-6" d="M13.28,32.05c-.55.35.46.2,0,0Z"/><path class="cls-6" d="M13.28,37.11Z"/><path class="cls-6" d="M13.28,43.58Z"/><path class="cls-6" d="M13.28,44.42Z"/><path class="cls-6" d="M13,29Z"/><path class="cls-6" d="M13,24.17c-.18,0-.2-.18-.43-.14C12.36,24.38,13.05,24.44,13,24.17Z"/><path class="cls-6" d="M12.72,23.75c0-.06-.1.09,0,0Z"/><path class="cls-6" d="M12.72,26.84c0-.06-.1.09,0,0Z"/><path class="cls-6" d="M12.57,28.67Z"/><path class="cls-6" d="M12.29,21.08Z"/><path class="cls-6" d="M12.29,27.55c-.13.58.43,0,0,0Z"/><path class="cls-6" d="M12.29,28.81Z"/><path class="cls-6" d="M12.29,30.92c-.15.75.43.17,0,0Z"/><path class="cls-6" d="M12,32.05c-.12.29.37.63.42.28C12.23,32.29,12.2,32.1,12,32.05Z"/><path class="cls-6" d="M12.29,35.28Z"/><path class="cls-6" d="M12.29,43c-.73.54.56.72,0,0Z"/><path class="cls-6" d="M12.15,30.5c.39-.71-.49-.52,0,0Z"/><path class="cls-6" d="M12.15,17.7c-.24.13-.75,0-.7.42C11.69,18,12.2,18.13,12.15,17.7Z"/><path class="cls-6" d="M12,20.51c0-.74.19-.9-.28-1.26C11.79,19.7,11.55,20.46,12,20.51Z"/><path class="cls-6" d="M12,25.44c.5-.57-.45-.34,0,0Z"/><path class="cls-6" d="M12,26.56Z"/><path class="cls-6" d="M12,31.77Z"/><path class="cls-6" d="M11.87,17.14c-.13.58.42,0,0,0Z"/><path class="cls-6" d="M11.87,24.31c-.13.59.42,0,0,0Z"/><path class="cls-6" d="M11.87,34.16Z"/><path class="cls-6" d="M11.87,37Z"/><path class="cls-6" d="M11.87,42.74c-.12.29-.43.41-.42.84C11.86,43.65,12.2,42.93,11.87,42.74Z"/><path class="cls-6" d="M11.87,44.42c0,.09,0,.17-.14.14v.29C12.08,45.06,12.14,44.37,11.87,44.42Z"/><path class="cls-6" d="M11.87,46c-.13.58.42,0,0,0Z"/><path class="cls-6" d="M11.73,22.9c-.15.75.43.17,0,0Z"/><path class="cls-6" d="M11.59,20.79c.06-.05-.09.1,0,0Z"/><path class="cls-6" d="M11.73,33.31h-.42C11.1,33.72,11.94,33.72,11.73,33.31Z"/><path class="cls-6" d="M11.59,43.86Z"/><path class="cls-6" d="M11.45,21.36c-.13.58.42,0,0,0Z"/><path class="cls-6" d="M11.45,27.55c-.13.58.42,0,0,0Z"/><path class="cls-6" d="M11,42.31c0,.33.14.61.42.71C11.32,42.77,11.45,42.26,11,42.31Z"/><path class="cls-6" d="M11.17,35c-.55.35.47.2,0,0Z"/><path class="cls-6" d="M11,24.45c.38-.71-.49-.52,0,0Z"/><path class="cls-6" d="M11,43.58Z"/><path class="cls-6" d="M10.89,23.33c-.55.35.46.2,0,0Z"/><path class="cls-6" d="M10.89,25.3c-.14.58.42,0,0,0Z"/><path class="cls-6" d="M11,28.81c.16-.9-.43-.31,0,0Z"/><path class="cls-6" d="M11,29.94h-.28v.42C11,30.38,11.08,30.22,11,29.94Z"/><path class="cls-6" d="M10.89,31.91Z"/><path class="cls-6" d="M10.75,27.55c-.47.2.55.35,0,0Z"/><path class="cls-6" d="M10.75,42Z"/><path class="cls-6" d="M10.61,45.55Z"/><path class="cls-6" d="M10.61,18.4h-.43C10,18.81,10.81,18.81,10.61,18.4Z"/><path class="cls-6" d="M10.32,22.34h.29v-.28h-.29Z"/><path class="cls-6" d="M10.47,24.87c0-.06-.1.1,0,0Z"/><path class="cls-6" d="M10,36.83c.54-.21,0,.63.57.42C10.71,36.75,10.15,36.3,10,36.83Z"/><path class="cls-6" d="M10.47,43.44c0-.06-.1.09,0,0Z"/><path class="cls-6" d="M10.32,23.75c-.54.35.47.2,0,0Z"/><path class="cls-6" d="M10.18,28.11a.39.39,0,0,0,.29.42A.39.39,0,0,0,10.18,28.11Z"/><path class="cls-6" d="M10.32,33c-.47-.34.34.47,0,0Z"/><path class="cls-6" d="M10.32,25.72H10v.42C10.3,26.16,10.37,26,10.32,25.72Z"/><path class="cls-6" d="M10.18,27.55c-.13.58.43,0,0,0Z"/><path class="cls-6" d="M10.18,44.14Z"/><path class="cls-6" d="M10,26.84c-.13.59.42,0,0,0Z"/><path class="cls-6" d="M10,29.23H9.76v.43C10,29.67,10.09,29.52,10,29.23Z"/><path class="cls-6" d="M9.9,37Z"/><path class="cls-6" d="M9.62,23.33Z"/><path class="cls-6" d="M9.62,36.13c-.13.58.42,0,0,0Z"/><path class="cls-6" d="M9.62,45.41c.5-.57-.45-.33,0,0Z"/><path class="cls-6" d="M9.48,30.5Z"/><path class="cls-6" d="M9.34,17.14Z"/><path class="cls-6" d="M9.34,26c-.13.58.42,0,0,0Z"/><path class="cls-6" d="M9.34,29.23Z"/><path class="cls-6" d="M9.34,43.16Z"/><path class="cls-6" d="M9.2,17.42c-.13.58.42,0,0,0Z"/><path class="cls-6" d="M9.06,29.23c-.14.59.42,0,0,0Z"/><path class="cls-6" d="M9.06,32.47c-.14.58.42,0,0,0Z"/><path class="cls-6" d="M8.92,38H9.2v-.28H8.92Z"/><path class="cls-6" d="M8.92,22.62Z"/><path class="cls-6" d="M8.86,23.32l-.11,0Z"/><path class="cls-6" d="M9.05,23.34h0Z"/><path class="cls-6" d="M8.86,23.32h0Z"/><path class="cls-6" d="M8.67,23.29Z"/><path class="cls-6" d="M9,23.34H9Z"/><path class="cls-6" d="M8.92,32.33c.39-.67-.46-.34,0,0Z"/><path class="cls-6" d="M8.78,17.42c-.19.19-.19.52.14.56C8.89,17.77,9,17.46,8.78,17.42Z"/><path class="cls-6" d="M8.78,22.06Z"/><path class="cls-6" d="M8.92,24.87c-.08-.2.16-.72-.14-.7C8.85,24.37,8.61,24.9,8.92,24.87Z"/><path class="cls-6" d="M8.5,19.39c0,.32,0,.53.28.56C8.75,19.7,8.92,19.25,8.5,19.39Z"/><path class="cls-6" d="M8.64,46.11c-.47-.34.34.47,0,0Z"/><path class="cls-6" d="M8.5,17.56c0-.18.18-.19.14-.42C8.29,16.92,8.22,17.62,8.5,17.56Z"/><path class="cls-6" d="M8.5,29.51Z"/><path class="cls-6" d="M8.5,36.55Z"/><path class="cls-6" d="M8.5,40.63c-.48-.34.34.47,0,0Z"/><path class="cls-6" d="M8.36,30.64c.05-.06-.1.09,0,0Z"/><path class="cls-6" d="M8.22,20.23c0-.06-.1.09,0,0Z"/><path class="cls-6" d="M8.07,22.62c-.47-.34.34.47,0,0Z"/><path class="cls-6" d="M8.07,25.3c-.08-.09-.66-.33-.7,0C7.6,25.49,8,26.06,8.07,25.3Z"/><path class="cls-6" d="M7.93,32.19Z"/><path class="cls-6" d="M8.07,44.56c.13-.29-.36-.63-.42-.28C7.85,44.32,7.89,44.51,8.07,44.56Z"/><path class="cls-6" d="M7.51,31.62c.17,0,.32.25.42,0C7.77,31.6,7.62,31.37,7.51,31.62Z"/><path class="cls-6" d="M7.65,26.56c-.13.59.42,0,0,0Z"/><path class="cls-6" d="M7.51,27.69Z"/><path class="cls-6" d="M7.51,29.66Z"/><path class="cls-6" d="M7.51,33.45c-.13.59.42,0,0,0Z"/><path class="cls-6" d="M7.37,20.79c-.13.59.42,0,0,0Z"/><path class="cls-6" d="M7.37,37Z"/><path class="cls-6" d="M7.37,44c-.13.59.42,0,0,0Z"/><path class="cls-6" d="M7.23,40.49Z"/><path class="cls-6" d="M7,21.5Z"/><path class="cls-6" d="M6.81,44.14Z"/><path class="cls-6" d="M6.67,27Z"/><path class="cls-6" d="M6.67,43.16Z"/><path class="cls-6" d="M6.53,29.66Z"/><path class="cls-6" d="M6.53,32.89c-.47.21.55.35,0,0Z"/><path class="cls-6" d="M6.53,34.86Z"/><path class="cls-6" d="M6.39,26.84Z"/><path class="cls-6" d="M6.39,30.92c0-.19.2-.27.14-.56C6.14,30.13,6.14,31,6.39,30.92Z"/><path class="cls-6" d="M6.25,29.09Z"/><path class="cls-6" d="M6,41.33v.28c0,.09,0,.17.15.14,0-.19.24-.13.28-.28C6.21,41.46,6.19,41.29,6,41.33Z"/><path class="cls-6" d="M6.11,22.06c0-.06-.1.09,0,0Z"/><path class="cls-6" d="M6.11,25c0-.06-.1.1,0,0Z"/><path class="cls-6" d="M6,28.67h.29v-.28H6Z"/><path class="cls-6" d="M6.11,39.78c-.55.35.46.21,0,0Z"/><path class="cls-6" d="M6.11,21.92c-.08-.2.16-.73-.15-.7C5.77,21.4,5.75,21.91,6.11,21.92Z"/><path class="cls-6" d="M5.68,23.19c0,.22,0,.48.28.42A.38.38,0,0,0,5.68,23.19Z"/><path class="cls-6" d="M5.82,30.22c-.13.58.43,0,0,0Z"/><path class="cls-6" d="M5.82,32.19c-.13.58.43,0,0,0Z"/><path class="cls-6" d="M5.82,38.94Z"/><path class="cls-6" d="M5.68,19.39Z"/><path class="cls-6" d="M5.4,37.25h.28V37H5.4Z"/><path class="cls-6" d="M5.26,27.69a.39.39,0,0,0,.28.42C5.53,27.89,5.56,27.62,5.26,27.69Z"/><path class="cls-6" d="M5.4,33.73c-.47-.34.34.48,0,0Z"/><path class="cls-6" d="M5.26,22.34Z"/><path class="cls-6" d="M5.12,24.87c0-.18.57-.42.14-.56C5.28,24.5,4.69,24.74,5.12,24.87Z"/><path class="cls-6" d="M5.4,27.41c.13-.29-.36-.64-.42-.29C5.2,27.14,5.09,27.48,5.4,27.41Z"/><path class="cls-6" d="M5.26,30.64c-.13.58.42,0,0,0Z"/><path class="cls-6" d="M5.26,33.31Z"/><path class="cls-6" d="M5.12,42.17H5.4v-.28H5.12Z"/><path class="cls-6" d="M5.26,45.13Z"/><path class="cls-6" d="M5.12,20.37Z"/><path class="cls-6" d="M5.12,25.44Z"/><path class="cls-6" d="M5.21,46c.12-.1.32-.79,0-.85C5.37,45.54,4.79,45.85,5.21,46Z"/><path class="cls-6" d="M4.7,25.72c0,.21,0,.52.14.56C5.15,26.15,5.25,25.68,4.7,25.72Z"/><path class="cls-6" d="M4.84,21.92c-.35.93.47.64,0,0Z"/><path class="cls-6" d="M5,28c-.39-.14.2-.38-.14-.56C4.2,27.25,4.67,28.65,5,28Z"/><path class="cls-6" d="M4.84,30.64Z"/><path class="cls-6" d="M4.84,44.42c-.47-.34.34.47,0,0Z"/><path class="cls-6" d="M4.7,20Z"/><path class="cls-6" d="M4.84,29.66H4.56v.28h.28Z"/><path class="cls-6" d="M4.7,42.17c-.15.75.43.17,0,0Z"/><path class="cls-6" d="M4.7,43.86Z"/><path class="cls-6" d="M4.42,24c0,.33-.3.61.14.7A.45.45,0,0,0,4.42,24Z"/><path class="cls-6" d="M4.56,29.23Z"/><path class="cls-6" d="M4.14,33.45c.43.19.79-.4.42-.56C4.52,33.18,4.18,33.17,4.14,33.45Z"/><path class="cls-6" d="M4.56,37.11c-.11.1-.37.84.14.7C4.46,37.45,4.86,37.32,4.56,37.11Z"/><path class="cls-6" d="M4.56,40.34c.06-.05-.09.1,0,0Z"/><path class="cls-6" d="M4.28,29.8c-.16.74.42.16,0,0Z"/><path class="cls-6" d="M4.28,32.19Z"/><path class="cls-6" d="M4.42,42.74c.16-.91-.43-.31,0,0Z"/><path class="cls-6" d="M3.86,22.34c.05-.06-.1.09,0,0Z"/><path class="cls-6" d="M3.86,32.05c-.14.58.42,0,0,0Z"/><path class="cls-6" d="M3.86,33.73Z"/><path class="cls-6" d="M3.71,24.45Z"/><path class="cls-6" d="M3.71,25.15c.06,0-.09.1,0,0Z"/><path class="cls-6" d="M3.71,28.11c-.13.58.43,0,0,0Z"/><path class="cls-6" d="M3.57,34.72Z"/><path class="cls-6" d="M3.57,43.3c-.46.2.55.35,0,0Z"/><path class="cls-6" d="M3.43,30.22c-.06.27-.3.35-.28.7C3.69,31.2,3.71,30.28,3.43,30.22Z"/><path class="cls-6" d="M3.57,32.75c0-.36-.25-.49-.42-.7C2.79,32.41,3.27,32.64,3.57,32.75Z"/><path class="cls-6" d="M3.43,36c-.13.59.42,0,0,0Z"/><path class="cls-6" d="M3.43,44.56c-.13.59.42,0,0,0Z"/><path class="cls-6" d="M3.43,23.19H3C2.8,23.6,3.64,23.6,3.43,23.19Z"/><path class="cls-6" d="M3.43,29.23c-.09-.93-.7-.33,0,0Z"/><path class="cls-6" d="M3,19.67c.35.22.42-.48.14-.42,0,.08,0,.16-.14.14Z"/><path class="cls-6" d="M3.15,25.58Z"/><path class="cls-6" d="M3.15,34.16Z"/><path class="cls-6" d="M3.15,39.92c-.13.59.42,0,0,0Z"/><path class="cls-6" d="M3,26.56c-.13.59.42,0,0,0Z"/><path class="cls-6" d="M3,27.69Z"/><path class="cls-6" d="M3.15,37.53c.07-.44-.17-.57-.42-.7C2.75,37.19,3,37.32,3.15,37.53Z"/><path class="cls-6" d="M2.73,31.48c-.13.59.42,0,0,0Z"/><path class="cls-6" d="M2.59,35.7c-.13.59.42,0,0,0Z"/><path class="cls-6" d="M2.59,42.45c-.13.59.42,0,0,0Z"/><path class="cls-6" d="M2.45,23.89c-.14.58.42,0,0,0Z"/><path class="cls-6" d="M2.45,24.31Z"/><path class="cls-6" d="M2.17,35.7h.28v-.28H2.17Z"/><path class="cls-6" d="M2.45,41.05v-.56H2.17C2.2,40.73,2,41.19,2.45,41.05Z"/><path class="cls-6" d="M2.17,31.91c-.55.35.46.2,0,0Z"/><path class="cls-6" d="M2.46,19.74c-.14.58.42,0,0,0Z"/><path class="cls-6" d="M2,20.94Z"/><path class="cls-6" d="M47.74,45c-.81,1,0,.64,0,0Z"/><path class="cls-6" d="M47.46,32.61l-.07-.11S47.77,33.16,47.46,32.61Z"/><path class="cls-6" d="M46.19,19.53c-.12.37.34.85.42.56C46.24,20.14,46.74,19.3,46.19,19.53Z"/><path class="cls-6" d="M45.06,24.17c-.3.12-.71.7,0,.7C44.88,24.52,45.38,24.19,45.06,24.17Z"/><path class="cls-6" d="M41.13,33.59c-.43-.38.38.43,0,0Z"/><path class="cls-6" d="M40.84,36.13c0-.68-.5.35,0,0Z"/><path class="cls-6" d="M40.28,21.92c-.38.43.43-.38,0,0Z"/><path class="cls-6" d="M39.3,19.25c.17-.9-.46-.63,0,0Z"/><path class="cls-6" d="M39,17.84c-.18-.45.45-.11.28-.56C39,17.17,38.72,17.8,39,17.84Z"/><path class="cls-6" d="M38.45,35.42c-.42-.38.39.43,0,0Z"/><path class="cls-6" d="M38.17,19c.2-.62-.07-.88-.56-1.13C37.36,18.2,38,18.58,38.17,19Z"/><path class="cls-6" d="M36.34,26.28c.33-.19.53.36.57,0C36.66,26.16,36.47,25.81,36.34,26.28Z"/><path class="cls-6" d="M36.63,29.94c-.39.42.42-.39,0,0Z"/><path class="cls-6" d="M35.36,33.59c.34.6.2.53-.14,1,.42.28.7-.55.84-1C35.8,33.33,35.71,33.58,35.36,33.59Z"/><path class="cls-6" d="M35.64,22.06Z"/><path class="cls-6" d="M35.64,26.7c0-.11.12-.16.28-.14v-.28C35.67,25.84,35.43,26.74,35.64,26.7Z"/><path class="cls-6" d="M35.08,27.69c.1-.81.52.06.7-.28-.33-.05-.31-.44-.56-.57C35.32,27.19,34.6,27.42,35.08,27.69Z"/><path class="cls-6" d="M35.22,43.58c.32-.19.53.36.56,0-.39.06.35-.53-.14-.56C35.85,43.55,35,43,35.22,43.58Z"/><path class="cls-6" d="M33.39,22.9c.4,0,.35-.39.56-.56C33.56,22.32,33.6,22.74,33.39,22.9Z"/><path class="cls-6" d="M32.55,27.12c0,.11-.12.17-.28.14,0,.17,0,.4.14.43C32.39,27.5,32.88,27.16,32.55,27.12Z"/><path class="cls-6" d="M31.28,31.77c0-.84.43-1.67-.28-2-.11.95.51,1.19,0,1.82.18.62,1.17-.24.56-.28C31.33,31.35,31.48,31.73,31.28,31.77Z"/><path class="cls-6" d="M30.86,20.37c.26,0,.78-.82.28-.7C31.24,20.1,30.75,19.94,30.86,20.37Z"/><path class="cls-6" d="M30.86,19.25l0-.08a.59.59,0,0,0,0,.08Z"/><path class="cls-6" d="M30.58,34.72c-.07-.82-.52-.37,0,0Z"/><path class="cls-6" d="M30.3,20.65c-.39.43.42-.38,0,0Z"/><path class="cls-6" d="M29.73,27.12c-.38.43.43-.38,0,0Z"/><path class="cls-6" d="M26.78,20.51c0-.35-.26-.43,0-.7C26.22,19.72,26.6,20.48,26.78,20.51Z"/><path class="cls-6" d="M25.37,39.78c.47-.19-.07-.52.71-.14a.66.66,0,0,0-.57-.56C25.57,39.42,25.26,39.38,25.37,39.78Z"/><path class="cls-6" d="M25.8,33.59c-.19.27.1.57-.14,1C26.24,34.57,25.8,33.55,25.8,33.59Z"/><path class="cls-6" d="M25.43,17.18h0Z"/><path class="cls-6" d="M25.43,17.18l-.06.1C25.07,17.8,25.37,17.28,25.43,17.18Z"/><path class="cls-6" d="M22.42,20.79v.29c.17.2.67.18.28.56C23.46,21.66,22.85,20.82,22.42,20.79Z"/><path class="cls-6" d="M21.72,23.19c.12-.29-.47-.54-.43-.29C21.52,22.92,21.41,23.26,21.72,23.19Z"/><path class="cls-6" d="M20.6,33.74h0l0-.07A.56.56,0,0,1,20.6,33.74Z"/><path class="cls-6" d="M17.22,32.33c.73-.3.25-.78,0,0Z"/><path class="cls-6" d="M15.34,20.65a.65.65,0,0,0,0,.1S15.33,20.7,15.34,20.65Z"/><path class="cls-6" d="M15.39,20.51v0l.12-.36S15.45,20.32,15.39,20.51Z"/><path class="cls-6" d="M15.38,20.54s0,.08,0,.11Z"/><path class="cls-6" d="M14.83,41.61c-.25.23.11.48.42.56C15.27,41.82,14.93,41.83,14.83,41.61Z"/><path class="cls-6" d="M14.4,32.33a.63.63,0,0,1,.43.14c-.21-.74.58-.91,0-1.27C15,31.88,14.48,31.89,14.4,32.33Z"/><path class="cls-6" d="M14.52,19l.1-.09Z"/><path class="cls-6" d="M14.62,18.87l.13-.09-.07,0Z"/><path class="cls-6" d="M14.47,19l0,0Z"/><path class="cls-6" d="M14.54,19.39c-.18.39.56.48.14.28C14.7,19.47,14.65,19.13,14.54,19.39Z"/><path class="cls-6" d="M14,26.7c.06-.52-.42-.43-.56-.14C13.8,26.86,13.67,26.17,14,26.7Z"/><path class="cls-6" d="M11.73,29c0-.22.36-.11.28-.42C11.72,28.41,11.48,29,11.73,29Z"/><path class="cls-6" d="M10.63,20.59a1.16,1.16,0,0,0,.06.15Z"/><path class="cls-6" d="M10.61,20.51l0,.06,0-.09Z"/><path class="cls-6" d="M10.72,20.83a.34.34,0,0,1,0-.08Z"/><path class="cls-6" d="M9.2,24c-.43-.38.38.43,0,0Z"/><path class="cls-6" d="M8.55,28.92l.1,0Z"/><path class="cls-6" d="M8.79,28.81l-.14.07.13-.07Z"/><path class="cls-6" d="M8.36,27.69c-.73.43.42-.26,0,0Z"/><path class="cls-6" d="M6.53,34.44c0-.53-.21-.46.14-.71C6.15,33.6,6.11,34.42,6.53,34.44Z"/><path class="cls-6" d="M5.22,44.35l0,0Z"/><path class="cls-6" d="M3.86,31.91c.17-.55,1.23.2,1.12-.85-.43.74-.69-.06-1.12.14C4.77,31.31,3.15,31.58,3.86,31.91Z"/><path class="cls-6" d="M4.84,40.77c-.43-.39.38.42,0,0Z"/><path class="cls-6" d="M3.29,41.05c-.32.32.1.62.28.84C3.45,41.64,3.53,41.19,3.29,41.05Z"/><path class="cls-6" d="M3.29,37.81c.42.91-.18-.41,0,0Z"/><path class="cls-4" d="M17.25,27.78c-1.79,0-3.54,0-5.32-.09s-3.46-.17-5.2-.11q-.81,0-1.62,0v.82c.68,0,1.35,0,2,0,1.73-.06,3.5.08,5.23.15s3.21.11,4.83.07c1,0,2.08,0,3.12,0V27.8C19.29,27.78,18.27,27.75,17.25,27.78Z"/><path class="cls-4" d="M43,27.73c-1.86.06-3.7-.06-5.55-.09-2.07,0-4.13,0-6.2,0v.84c2.22,0,4.44,0,6.65,0,1.69,0,3.34.12,5,.08l2.75-.09v-.83Z"/><path class="cls-4" d="M16.73,31C16,31,15.35,31,14.66,31c-.87,0-1.72.13-2.59.15-1.57,0-3.14-.08-4.71-.05-.76,0-1.5,0-2.25,0v.83c.72,0,1.45,0,2.18,0,1.72,0,3.43.07,5.14,0,1.44,0,2.78-.14,4.23-.1,1.22,0,2.43,0,3.65-.06V31C19.11,31,17.92,31.05,16.73,31Z"/><path class="cls-4" d="M37.5,31.06l-5,.14q-.62,0-1.23,0V32h1.16c1.84,0,3.67-.1,5.51-.14,2.59-.06,5.17-.15,7.77-.2v-.83C43,30.9,40.23,31,37.5,31.06Z"/><path class="cls-4" d="M18.93,34.82,14.22,35c-1.75,0-3.47-.07-5.21-.11-1.3,0-2.6,0-3.9-.05v.84c1.44,0,2.87,0,4.31,0,1.59,0,3.14.13,4.73.1s3.46-.1,5.19-.14l1,0v-.83Z"/><path class="cls-4" d="M42.28,34.46c-2,.18-4.21.06-6.24.07l-4.78,0v.83l5.27,0c1.86,0,3.82.07,5.67-.06,1.18-.09,2.34-.1,3.5-.21v-.84C44.58,34.36,43.43,34.36,42.28,34.46Z"/><path class="cls-3" d="M29.6,32.57a3.57,3.57,0,0,0-1.34-1.06,17.31,17.31,0,0,0-1.85-.66V27.29a1.82,1.82,0,0,1,.86.49,1.86,1.86,0,0,1,.53,1,.26.26,0,0,0,.26.21h1.62a.25.25,0,0,0,.19-.09.24.24,0,0,0,.06-.2,3.47,3.47,0,0,0-1.15-2.16,4.17,4.17,0,0,0-2.37-1v-1.2a.26.26,0,0,0-.26-.26h-.51a.26.26,0,0,0-.26.26v1.17a4.85,4.85,0,0,0-1.8.4,3.25,3.25,0,0,0-1.41,1.16,3.1,3.1,0,0,0-.51,1.75,3,3,0,0,0,.58,1.93,3.39,3.39,0,0,0,1.32,1.05c.44.19,1.05.4,1.82.64v3.72a1.94,1.94,0,0,1-1-.61,2,2,0,0,1-.54-1.15.25.25,0,0,0-.26-.23H22a.27.27,0,0,0-.19.08.31.31,0,0,0-.07.2,3.46,3.46,0,0,0,1.2,2.36,4.5,4.5,0,0,0,2.47,1.07V39a.26.26,0,0,0,.26.26h.51a.26.26,0,0,0,.26-.26V37.94a4.45,4.45,0,0,0,2-.47,3.17,3.17,0,0,0,1.79-2.93A3.1,3.1,0,0,0,29.6,32.57Zm-5.35-2.7a1.61,1.61,0,0,1,0-2.26,1.9,1.9,0,0,1,1.1-.4V30.5a4.06,4.06,0,0,1-1.13-.63Zm2.16,2.9a3.93,3.93,0,0,1,1.18.65,1.42,1.42,0,0,1,.47,1.16,1.6,1.6,0,0,1-.48,1.2,1.76,1.76,0,0,1-1.17.46Z"/></svg>